<svg width="360" height="360" viewBox="0 0 360 360" fill="none" xmlns="http://www.w3.org/2000/svg">
<path d="M317.293 180.5C317.293 255.611 256.443 316.5 181.382 316.5C106.32 316.5 45.4707 255.611 45.4707 180.5C45.4707 105.389 106.32 44.5 181.382 44.5C256.443 44.5 317.293 105.389 317.293 180.5Z" stroke="#2A2B2D"/>
<path d="M183.405 60.55C183.267 60.754 183.129 60.901 182.991 60.991C182.853 61.081 182.67 61.126 182.442 61.126C182.196 61.126 181.992 61.054 181.83 60.91C181.674 60.766 181.557 60.514 181.479 60.154L181.281 59.254C181.209 58.942 181.14 58.702 181.074 58.534C181.014 58.366 180.921 58.231 180.795 58.129C180.669 58.027 180.492 57.976 180.264 57.976H179.409V60.046C179.409 60.274 179.427 60.439 179.463 60.541C179.499 60.643 179.565 60.712 179.661 60.748C179.763 60.784 179.922 60.808 180.138 60.82V61C179.862 60.982 179.481 60.973 178.995 60.973C178.479 60.973 178.095 60.982 177.843 61V60.82C178.059 60.808 178.215 60.784 178.311 60.748C178.413 60.712 178.482 60.643 178.518 60.541C178.554 60.439 178.572 60.274 178.572 60.046V55.582C178.572 55.354 178.554 55.189 178.518 55.087C178.482 54.985 178.413 54.916 178.311 54.88C178.215 54.844 178.059 54.82 177.843 54.808V54.628C178.095 54.646 178.461 54.655 178.941 54.655L179.913 54.646C180.027 54.64 180.156 54.637 180.3 54.637C180.996 54.637 181.53 54.784 181.902 55.078C182.28 55.366 182.469 55.741 182.469 56.203C182.469 56.437 182.412 56.674 182.298 56.914C182.19 57.148 182.004 57.361 181.74 57.553C181.482 57.739 181.143 57.865 180.723 57.931L180.831 57.949C181.227 58.015 181.515 58.135 181.695 58.309C181.875 58.483 182.007 58.759 182.091 59.137L182.316 60.055C182.376 60.331 182.439 60.523 182.505 60.631C182.571 60.739 182.661 60.793 182.775 60.793C182.877 60.793 182.961 60.766 183.027 60.712C183.099 60.658 183.18 60.571 183.27 60.451L183.405 60.55ZM180.075 54.808C179.889 54.808 179.748 54.829 179.652 54.871C179.562 54.913 179.499 54.988 179.463 55.096C179.427 55.204 179.409 55.366 179.409 55.582V57.796H180.012C180.606 57.796 181.014 57.664 181.236 57.4C181.458 57.136 181.569 56.77 181.569 56.302C181.569 55.81 181.452 55.438 181.218 55.186C180.984 54.934 180.603 54.808 180.075 54.808Z" fill="#2A2B2D"/>
<path d="M195.91 55.3802C196.476 55.4489 196.955 55.6371 197.347 55.9446C197.744 56.2528 198.03 56.6652 198.203 57.1819C198.382 57.6933 198.432 58.2855 198.35 58.9586C198.27 59.6138 198.078 60.1797 197.772 60.6563C197.472 61.1336 197.088 61.4859 196.619 61.713C196.157 61.9408 195.651 62.0214 195.103 61.9549C194.537 61.8861 194.056 61.6976 193.658 61.3894C193.266 61.0819 192.98 60.6724 192.801 60.161C192.628 59.6444 192.582 59.0495 192.664 58.3765C192.743 57.7213 192.933 57.155 193.232 56.6777C193.538 56.2011 193.922 55.8488 194.385 55.621C194.854 55.3939 195.362 55.3136 195.91 55.3802ZM195.855 55.5367C195.474 55.4903 195.121 55.5835 194.797 55.816C194.479 56.0434 194.211 56.3855 193.992 56.8425C193.779 57.3002 193.636 57.8358 193.561 58.4493C193.486 59.0687 193.506 59.6242 193.622 60.1158C193.744 60.608 193.938 61.0003 194.204 61.2926C194.471 61.5849 194.789 61.7535 195.159 61.7984C195.54 61.8447 195.889 61.7542 196.207 61.5268C196.531 61.2943 196.8 60.9491 197.012 60.4915C197.231 60.0345 197.378 59.4993 197.452 58.8858C197.527 58.2663 197.504 57.7104 197.382 57.2182C197.267 56.7266 197.076 56.3347 196.809 56.0424C196.542 55.7501 196.224 55.5815 195.855 55.5367Z" fill="#2A2B2D"/>
<path d="M212.054 58.6892C212.316 58.7538 212.536 58.799 212.715 58.8246L212.672 58.9994C212.364 58.9974 212.071 59.1941 211.795 59.5894L208.437 64.3786L208.367 64.3614L208.297 64.3442L207.519 58.3216C207.468 57.9259 207.313 57.6899 207.054 57.6136L207.097 57.4388C207.326 57.5138 207.635 57.5994 208.025 57.6956C208.526 57.8192 208.901 57.9024 209.15 57.9453L209.107 58.1201C208.883 58.0771 208.716 58.0667 208.605 58.0889C208.502 58.1067 208.436 58.1739 208.407 58.2904C208.383 58.3894 208.384 58.535 208.411 58.727L208.957 63.3204L211.292 59.9752C211.486 59.6893 211.603 59.4648 211.643 59.3017C211.688 59.1211 211.656 58.9742 211.548 58.8611C211.446 58.7493 211.267 58.6589 211.012 58.5899L211.055 58.4151C211.383 58.5145 211.716 58.6058 212.054 58.6892Z" fill="#2A2B2D"/>
<path d="M226.209 63.5353C226.002 63.4699 225.845 63.4359 225.737 63.4334C225.635 63.433 225.548 63.4741 225.479 63.5567C225.409 63.6393 225.333 63.7872 225.253 64.0004L223.671 68.1747C223.59 68.3879 223.548 68.5485 223.546 68.6567C223.543 68.7649 223.58 68.8528 223.657 68.9205C223.74 68.9904 223.88 69.0692 224.078 69.1571L224.014 69.3254C223.762 69.2106 223.409 69.067 222.955 68.8946C222.473 68.7115 222.11 68.5837 221.868 68.5111L221.932 68.3428C222.138 68.4082 222.293 68.4411 222.395 68.4415C222.503 68.4441 222.592 68.404 222.662 68.3214C222.732 68.2388 222.807 68.0909 222.888 67.8777L224.47 63.7034C224.551 63.4902 224.593 63.3296 224.595 63.2214C224.598 63.1133 224.557 63.0243 224.475 62.9544C224.398 62.8867 224.261 62.8089 224.063 62.721L224.127 62.5527C224.356 62.659 224.712 62.8036 225.194 62.9867C225.643 63.157 226.002 63.2838 226.272 63.367L226.209 63.5353Z" fill="#2A2B2D"/>
<path d="M238.445 68.8657C238.763 69.0331 239.01 69.2205 239.186 69.428C239.362 69.6355 239.513 69.8774 239.639 70.1537C239.672 70.2323 239.71 70.2827 239.753 70.305C239.859 70.3608 240.012 70.2376 240.211 69.9356L240.394 70.0318C240.192 70.366 239.86 70.9715 239.401 71.8482L239.217 71.752C239.34 71.3759 239.416 71.1009 239.447 70.9271C239.48 70.7479 239.477 70.5599 239.438 70.3632C239.387 70.0722 239.263 69.8107 239.067 69.5787C238.878 69.3441 238.64 69.1514 238.353 69.0008C238.008 68.8195 237.645 68.7747 237.265 68.8665C236.89 68.961 236.52 69.1832 236.153 69.533C235.79 69.8774 235.459 70.3339 235.161 70.9024C234.857 71.4816 234.673 72.0189 234.61 72.5142C234.547 73.0096 234.593 73.4373 234.75 73.7974C234.915 74.1551 235.17 74.4245 235.515 74.6059C235.781 74.7453 236.065 74.8302 236.367 74.8603C236.67 74.8905 236.946 74.8423 237.195 74.7157C237.38 74.6227 237.54 74.5038 237.677 74.3588C237.814 74.2139 237.996 73.9773 238.222 73.6489L238.406 73.7451C237.926 74.6591 237.602 75.3023 237.434 75.6747L237.251 75.5785C237.324 75.4001 237.363 75.268 237.367 75.1822C237.38 75.0938 237.359 75.0357 237.306 75.0078C237.264 74.9855 237.197 74.9775 237.106 74.9837C236.777 75.0282 236.481 75.0384 236.215 75.0144C235.953 74.985 235.668 74.8894 235.36 74.7276C234.855 74.4626 234.472 74.1154 234.209 73.686C233.952 73.2595 233.83 72.7752 233.843 72.2332C233.864 71.6887 234.032 71.1163 234.347 70.5159C234.654 69.9314 235.032 69.4691 235.481 69.129C235.936 68.7918 236.42 68.5987 236.933 68.5498C237.452 68.5038 237.956 68.609 238.445 68.8657Z" fill="#2A2B2D"/>
<path d="M253.523 78.5791C253.339 78.4662 253.194 78.3956 253.09 78.3673C252.99 78.3423 252.897 78.3616 252.809 78.4251C252.722 78.4886 252.613 78.6142 252.484 78.8019L249.949 82.4765C249.82 82.6642 249.741 82.8102 249.712 82.9146C249.684 83.0191 249.699 83.1134 249.758 83.1976C249.821 83.2852 249.939 83.3953 250.109 83.5279L250.007 83.6761C249.81 83.518 249.499 83.2924 249.075 82.9992C248.675 82.723 248.356 82.5138 248.119 82.3718L248.221 82.2236C248.406 82.3365 248.548 82.4054 248.647 82.4303C248.751 82.4587 248.847 82.4411 248.935 82.3776C249.022 82.3141 249.131 82.1885 249.26 82.0008L250.487 80.2228L248.08 78.5605L246.854 80.3385C246.724 80.5262 246.645 80.6722 246.617 80.7766C246.589 80.8811 246.604 80.9754 246.662 81.0596C246.726 81.1472 246.843 81.2573 247.014 81.3899L246.912 81.5381C246.695 81.3664 246.387 81.1425 245.987 80.8663C245.562 80.573 245.241 80.3622 245.023 80.2338L245.126 80.0856C245.31 80.1985 245.452 80.2674 245.552 80.2923C245.656 80.3207 245.752 80.3031 245.84 80.2396C245.927 80.1761 246.036 80.0505 246.165 79.8628L248.7 76.1882C248.829 76.0006 248.908 75.8545 248.936 75.7501C248.965 75.6457 248.947 75.5496 248.884 75.462C248.825 75.3779 248.71 75.2694 248.539 75.1368L248.642 74.9886C248.839 75.1467 249.15 75.3723 249.574 75.6656C249.969 75.9384 250.288 76.1475 250.53 76.2929L250.428 76.4411C250.243 76.3282 250.099 76.2576 249.994 76.2293C249.895 76.2043 249.801 76.2236 249.714 76.2871C249.626 76.3506 249.518 76.4762 249.388 76.6639L248.182 78.4123L250.589 80.0746L251.795 78.3262C251.925 78.1386 252.003 77.9925 252.032 77.8881C252.06 77.7837 252.042 77.6876 251.979 77.6C251.92 77.5159 251.806 77.4074 251.635 77.2748L251.737 77.1266C251.954 77.2983 252.262 77.5222 252.662 77.7984C253.087 78.0917 253.408 78.3025 253.625 78.4309L253.523 78.5791Z" fill="#2A2B2D"/>
<path d="M271.054 99.4532L269.842 100.528C269.672 100.679 269.564 100.806 269.52 100.91C269.475 101.014 269.479 101.122 269.532 101.236C269.584 101.35 269.696 101.512 269.866 101.722L269.731 101.841C269.538 101.596 269.252 101.26 268.874 100.833C268.532 100.446 268.271 100.165 268.09 99.9882L268.225 99.8688C268.377 100.023 268.498 100.123 268.589 100.171C268.684 100.224 268.781 100.23 268.881 100.189C268.981 100.148 269.117 100.052 269.287 99.9011L272.628 96.9399C272.798 96.7886 272.91 96.6657 272.962 96.5711C273.015 96.4765 273.021 96.379 272.98 96.2788C272.943 96.183 272.858 96.0503 272.724 95.8806L272.858 95.7612C273.012 95.9618 273.248 96.2418 273.566 96.6012L274.217 97.323C274.297 97.4044 274.385 97.499 274.48 97.6068C274.946 98.1324 275.18 98.6419 275.185 99.1354C275.193 99.6249 274.996 100.049 274.591 100.407C274.344 100.626 274.057 100.781 273.728 100.871C273.408 100.963 273.055 100.943 272.668 100.814C272.284 100.688 271.9 100.408 271.514 99.972L271.054 99.4532ZM274.203 97.5518C274.08 97.4125 273.971 97.3209 273.876 97.2769C273.785 97.2373 273.687 97.2399 273.582 97.2846C273.477 97.3293 273.344 97.4233 273.183 97.5666L271.189 99.3338L271.589 99.7852C271.979 100.225 272.364 100.425 272.744 100.384C273.134 100.344 273.526 100.149 273.921 99.7987C274.356 99.4127 274.6 99.0405 274.651 98.6822C274.707 98.3284 274.557 97.9516 274.203 97.5518Z" fill="#2A2B2D"/>
<path d="M284.668 111.306C284.535 111.135 284.425 111.018 284.338 110.955C284.254 110.896 284.16 110.881 284.055 110.909C283.951 110.938 283.805 111.017 283.617 111.146L279.944 113.683C279.757 113.813 279.631 113.921 279.568 114.009C279.504 114.097 279.485 114.19 279.51 114.29C279.538 114.394 279.608 114.539 279.721 114.723L279.573 114.825C279.445 114.608 279.234 114.287 278.941 113.862C278.665 113.462 278.442 113.153 278.27 112.936L278.418 112.834C278.551 113.005 278.659 113.12 278.743 113.178C278.831 113.242 278.927 113.259 279.031 113.231C279.135 113.203 279.281 113.124 279.469 112.994L281.246 111.767L279.585 109.359L277.808 110.586C277.62 110.716 277.495 110.825 277.431 110.912C277.368 111 277.349 111.093 277.374 111.193C277.402 111.297 277.472 111.442 277.585 111.626L277.437 111.729C277.295 111.491 277.086 111.173 276.81 110.773C276.517 110.348 276.292 110.037 276.134 109.84L276.282 109.737C276.415 109.908 276.523 110.023 276.607 110.082C276.695 110.145 276.79 110.163 276.895 110.134C276.999 110.106 277.145 110.027 277.333 109.898L281.006 107.361C281.193 107.231 281.319 107.122 281.382 107.035C281.446 106.947 281.464 106.851 281.435 106.747C281.41 106.647 281.342 106.505 281.229 106.321L281.377 106.218C281.505 106.436 281.716 106.757 282.009 107.182C282.281 107.577 282.505 107.886 282.68 108.107L282.532 108.21C282.399 108.039 282.289 107.922 282.202 107.858C282.118 107.799 282.023 107.784 281.919 107.813C281.815 107.841 281.669 107.92 281.481 108.05L279.733 109.257L281.394 111.664L283.142 110.457C283.33 110.328 283.455 110.219 283.519 110.132C283.582 110.044 283.6 109.948 283.571 109.843C283.546 109.744 283.478 109.602 283.365 109.417L283.513 109.315C283.655 109.552 283.864 109.871 284.14 110.271C284.433 110.696 284.658 111.007 284.816 111.204L284.668 111.306Z" fill="#2A2B2D"/>
<path d="M291.457 122.419C291.722 122.924 291.839 123.425 291.808 123.922C291.78 124.424 291.603 124.894 291.276 125.33C290.957 125.768 290.498 126.145 289.898 126.46C289.313 126.767 288.738 126.93 288.172 126.95C287.609 126.974 287.101 126.858 286.648 126.601C286.198 126.35 285.845 125.98 285.588 125.491C285.323 124.986 285.205 124.482 285.233 123.98C285.263 123.483 285.438 123.015 285.757 122.576C286.084 122.14 286.547 121.765 287.147 121.449C287.732 121.143 288.305 120.977 288.868 120.952C289.434 120.933 289.942 121.049 290.393 121.3C290.846 121.557 291.2 121.93 291.457 122.419ZM291.297 122.462C291.118 122.122 290.841 121.885 290.466 121.75C290.098 121.618 289.664 121.591 289.164 121.671C288.667 121.756 288.144 121.942 287.597 122.23C287.045 122.52 286.599 122.852 286.26 123.227C285.924 123.606 285.712 123.989 285.623 124.375C285.534 124.76 285.576 125.118 285.748 125.447C285.927 125.787 286.2 126.024 286.567 126.156C286.943 126.291 287.379 126.316 287.877 126.231C288.377 126.151 288.9 125.967 289.448 125.68C290 125.39 290.444 125.055 290.78 124.675C291.119 124.301 291.333 123.921 291.422 123.535C291.511 123.149 291.469 122.792 291.297 122.462Z" fill="#2A2B2D"/>
<path d="M298.038 137.87C297.625 137.982 297.258 138.098 296.938 138.22C296.658 138.326 296.431 138.422 296.258 138.507L296.185 138.313C296.6 138.104 296.898 137.927 297.08 137.781C297.268 137.633 297.377 137.456 297.409 137.252C297.446 137.045 297.399 136.768 297.267 136.42L297.095 135.966L292.307 137.783C292.071 137.872 291.909 137.959 291.819 138.045C291.729 138.13 291.686 138.236 291.69 138.363C291.693 138.49 291.737 138.682 291.821 138.939L291.653 139.003C291.559 138.705 291.411 138.289 291.209 137.756C290.997 137.195 290.831 136.783 290.712 136.52L290.88 136.456C290.987 136.705 291.082 136.877 291.163 136.975C291.245 137.072 291.348 137.123 291.471 137.127C291.595 137.132 291.775 137.089 292.01 137L296.798 135.183L296.626 134.728C296.494 134.381 296.346 134.142 296.181 134.012C296.022 133.88 295.823 133.82 295.584 133.834C295.351 133.845 295.01 133.911 294.561 134.03L294.488 133.836C294.674 133.785 294.907 133.706 295.187 133.599C295.507 133.478 295.859 133.322 296.242 133.132C296.402 133.604 296.693 134.398 297.116 135.515C297.537 136.626 297.844 137.411 298.038 137.87Z" fill="#2A2B2D"/>
<path d="M301.98 150.812C302.117 151.366 302.11 151.88 301.962 152.356C301.815 152.837 301.53 153.25 301.109 153.595C300.694 153.944 300.158 154.2 299.499 154.363C298.859 154.521 298.261 154.541 297.707 154.425C297.155 154.314 296.689 154.079 296.311 153.722C295.933 153.37 295.679 152.926 295.547 152.39C295.411 151.836 295.416 151.319 295.563 150.838C295.712 150.362 295.993 149.95 296.408 149.6C296.829 149.255 297.369 149.002 298.028 148.839C298.669 148.681 299.265 148.658 299.818 148.769C300.372 148.885 300.837 149.12 301.214 149.472C301.593 149.829 301.848 150.276 301.98 150.812ZM301.814 150.816C301.723 150.443 301.51 150.146 301.178 149.926C300.853 149.709 300.438 149.58 299.933 149.537C299.43 149.501 298.878 149.557 298.278 149.705C297.672 149.854 297.16 150.07 296.741 150.352C296.324 150.641 296.026 150.961 295.847 151.314C295.669 151.668 295.624 152.025 295.713 152.386C295.805 152.759 296.013 153.053 296.338 153.27C296.671 153.491 297.089 153.619 297.592 153.656C298.097 153.698 298.649 153.645 299.249 153.497C299.855 153.348 300.367 153.129 300.784 152.841C301.202 152.558 301.501 152.241 301.68 151.887C301.858 151.534 301.903 151.177 301.814 150.816Z" fill="#2A2B2D"/>
<path d="M299.216 183.522C299.012 183.384 298.865 183.246 298.775 183.108C298.685 182.97 298.64 182.787 298.64 182.559C298.64 182.313 298.712 182.109 298.856 181.947C299 181.791 299.252 181.674 299.612 181.596L300.512 181.398C300.824 181.326 301.064 181.257 301.232 181.191C301.4 181.131 301.535 181.038 301.637 180.912C301.739 180.786 301.79 180.609 301.79 180.381V179.526H299.72C299.492 179.526 299.327 179.544 299.225 179.58C299.123 179.616 299.054 179.682 299.018 179.778C298.982 179.88 298.958 180.039 298.946 180.255H298.766C298.784 179.979 298.793 179.598 298.793 179.112C298.793 178.596 298.784 178.212 298.766 177.96H298.946C298.958 178.176 298.982 178.332 299.018 178.428C299.054 178.53 299.123 178.599 299.225 178.635C299.327 178.671 299.492 178.689 299.72 178.689H304.184C304.412 178.689 304.577 178.671 304.679 178.635C304.781 178.599 304.85 178.53 304.886 178.428C304.922 178.332 304.946 178.176 304.958 177.96H305.138C305.12 178.212 305.111 178.578 305.111 179.058L305.12 180.03C305.126 180.144 305.129 180.273 305.129 180.417C305.129 181.113 304.982 181.647 304.688 182.019C304.4 182.397 304.025 182.586 303.563 182.586C303.329 182.586 303.092 182.529 302.852 182.415C302.618 182.307 302.405 182.121 302.213 181.857C302.027 181.599 301.901 181.26 301.835 180.84L301.817 180.948C301.751 181.344 301.631 181.632 301.457 181.812C301.283 181.992 301.007 182.124 300.629 182.208L299.711 182.433C299.435 182.493 299.243 182.556 299.135 182.622C299.027 182.688 298.973 182.778 298.973 182.892C298.973 182.994 299 183.078 299.054 183.144C299.108 183.216 299.195 183.297 299.315 183.387L299.216 183.522ZM304.958 180.192C304.958 180.006 304.937 179.865 304.895 179.769C304.853 179.679 304.778 179.616 304.67 179.58C304.562 179.544 304.4 179.526 304.184 179.526H301.97V180.129C301.97 180.723 302.102 181.131 302.366 181.353C302.63 181.575 302.996 181.686 303.464 181.686C303.956 181.686 304.328 181.569 304.58 181.335C304.832 181.101 304.958 180.72 304.958 180.192Z" fill="#2A2B2D"/>
<path d="M304.388 196.033C304.319 196.599 304.131 197.078 303.824 197.47C303.516 197.868 303.103 198.153 302.587 198.326C302.075 198.505 301.483 198.554 300.81 198.473C300.155 198.393 299.589 198.2 299.112 197.895C298.635 197.595 298.283 197.211 298.055 196.742C297.828 196.279 297.747 195.773 297.813 195.225C297.882 194.66 298.07 194.178 298.379 193.78C298.686 193.388 299.095 193.103 299.607 192.923C300.123 192.75 300.718 192.704 301.391 192.786C302.046 192.866 302.613 193.055 303.09 193.355C303.567 193.661 303.919 194.045 304.147 194.508C304.374 194.977 304.454 195.485 304.388 196.033ZM304.231 195.978C304.278 195.597 304.185 195.244 303.952 194.92C303.725 194.602 303.382 194.334 302.925 194.115C302.468 193.902 301.932 193.759 301.319 193.684C300.699 193.609 300.144 193.629 299.652 193.744C299.16 193.866 298.768 194.06 298.475 194.327C298.183 194.593 298.015 194.911 297.97 195.281C297.924 195.662 298.014 196.011 298.242 196.329C298.474 196.654 298.819 196.922 299.277 197.135C299.734 197.354 300.269 197.5 300.883 197.575C301.502 197.65 302.058 197.627 302.55 197.505C303.042 197.39 303.434 197.199 303.726 196.932C304.018 196.665 304.187 196.347 304.231 195.978Z" fill="#2A2B2D"/>
<path d="M301.085 212.183C301.02 212.445 300.975 212.666 300.95 212.845L300.775 212.802C300.777 212.493 300.58 212.201 300.185 211.924L295.395 208.564L295.412 208.495L295.43 208.425L301.451 207.648C301.847 207.597 302.083 207.442 302.159 207.183L302.334 207.226C302.259 207.455 302.173 207.764 302.077 208.155C301.954 208.656 301.871 209.031 301.828 209.28L301.653 209.237C301.696 209.012 301.706 208.845 301.684 208.734C301.666 208.631 301.599 208.565 301.483 208.536C301.384 208.512 301.238 208.513 301.046 208.54L296.453 209.085L299.799 211.421C300.085 211.615 300.309 211.732 300.472 211.773C300.653 211.817 300.8 211.785 300.913 211.677C301.025 211.575 301.115 211.397 301.184 211.142L301.359 211.185C301.259 211.513 301.168 211.845 301.085 212.183Z" fill="#2A2B2D"/>
<path d="M296.248 226.346C296.313 226.14 296.347 225.983 296.349 225.874C296.35 225.772 296.309 225.686 296.226 225.616C296.143 225.546 295.995 225.471 295.782 225.39L291.609 223.806C291.396 223.725 291.235 223.683 291.127 223.681C291.019 223.678 290.931 223.715 290.863 223.792C290.793 223.875 290.714 224.015 290.627 224.213L290.458 224.149C290.573 223.897 290.716 223.544 290.889 223.09C291.072 222.607 291.199 222.245 291.272 222.003L291.44 222.067C291.375 222.273 291.342 222.427 291.341 222.53C291.339 222.638 291.379 222.727 291.462 222.797C291.544 222.867 291.692 222.942 291.905 223.023L296.079 224.607C296.292 224.688 296.453 224.73 296.561 224.732C296.669 224.735 296.758 224.695 296.828 224.612C296.895 224.535 296.973 224.398 297.061 224.2L297.229 224.264C297.123 224.493 296.979 224.849 296.796 225.331C296.626 225.78 296.499 226.14 296.416 226.41L296.248 226.346Z" fill="#2A2B2D"/>
<path d="M290.927 238.591C290.76 238.909 290.573 239.157 290.365 239.332C290.158 239.508 289.916 239.659 289.64 239.785C289.562 239.818 289.511 239.856 289.489 239.899C289.433 240.005 289.556 240.158 289.858 240.357L289.762 240.541C289.428 240.338 288.823 240.006 287.946 239.546L288.042 239.363C288.418 239.486 288.693 239.562 288.867 239.593C289.046 239.626 289.234 239.623 289.431 239.584C289.722 239.533 289.983 239.409 290.215 239.213C290.449 239.024 290.642 238.786 290.792 238.499C290.973 238.154 291.018 237.791 290.926 237.411C290.831 237.036 290.609 236.665 290.26 236.298C289.915 235.934 289.459 235.603 288.89 235.305C288.311 235.001 287.774 234.817 287.279 234.753C286.784 234.69 286.356 234.736 285.997 234.893C285.639 235.058 285.37 235.313 285.189 235.658C285.049 235.924 284.965 236.208 284.935 236.511C284.905 236.814 284.953 237.09 285.079 237.339C285.172 237.523 285.291 237.684 285.436 237.821C285.581 237.958 285.818 238.14 286.146 238.367L286.05 238.55C285.136 238.07 284.493 237.746 284.121 237.578L284.217 237.394C284.395 237.468 284.527 237.507 284.613 237.511C284.702 237.524 284.76 237.503 284.788 237.45C284.81 237.408 284.818 237.341 284.812 237.249C284.767 236.921 284.757 236.624 284.781 236.359C284.81 236.096 284.905 235.811 285.067 235.503C285.332 234.998 285.679 234.614 286.108 234.352C286.534 234.094 287.018 233.972 287.56 233.986C288.104 234.007 288.676 234.176 289.277 234.491C289.861 234.798 290.323 235.176 290.663 235.626C291 236.081 291.194 236.565 291.243 237.079C291.289 237.598 291.184 238.102 290.927 238.591Z" fill="#2A2B2D"/>
<path d="M281.228 253.681C281.341 253.496 281.411 253.351 281.439 253.247C281.464 253.148 281.445 253.054 281.381 252.966C281.318 252.879 281.192 252.77 281.005 252.641L277.332 250.104C277.144 249.974 276.998 249.895 276.894 249.867C276.789 249.838 276.695 249.854 276.611 249.912C276.524 249.976 276.414 250.093 276.281 250.264L276.133 250.162C276.291 249.964 276.516 249.653 276.809 249.229C277.085 248.829 277.294 248.51 277.436 248.272L277.584 248.375C277.471 248.559 277.403 248.701 277.378 248.801C277.349 248.905 277.367 249.001 277.43 249.089C277.494 249.177 277.619 249.285 277.807 249.415L279.584 250.642L281.245 248.234L279.468 247.007C279.28 246.877 279.134 246.798 279.03 246.77C278.926 246.742 278.831 246.757 278.747 246.815C278.66 246.879 278.55 246.996 278.417 247.167L278.269 247.065C278.441 246.848 278.664 246.539 278.94 246.139C279.233 245.715 279.444 245.393 279.572 245.176L279.72 245.278C279.608 245.463 279.539 245.605 279.514 245.704C279.485 245.809 279.503 245.905 279.567 245.992C279.63 246.08 279.756 246.188 279.943 246.318L283.616 248.855C283.804 248.984 283.95 249.063 284.054 249.092C284.159 249.12 284.254 249.103 284.342 249.039C284.426 248.98 284.534 248.866 284.667 248.695L284.815 248.797C284.657 248.994 284.432 249.305 284.139 249.73C283.866 250.125 283.657 250.444 283.512 250.686L283.364 250.584C283.477 250.399 283.547 250.255 283.575 250.15C283.6 250.051 283.581 249.957 283.518 249.87C283.454 249.782 283.329 249.673 283.141 249.544L281.393 248.337L279.732 250.745L281.48 251.952C281.668 252.081 281.814 252.16 281.918 252.188C282.022 252.217 282.118 252.199 282.206 252.136C282.29 252.077 282.398 251.962 282.531 251.791L282.679 251.894C282.507 252.111 282.284 252.419 282.008 252.819C281.715 253.244 281.504 253.565 281.376 253.783L281.228 253.681Z" fill="#2A2B2D"/>
<path d="M260.38 271.234L259.306 270.021C259.155 269.851 259.028 269.743 258.924 269.699C258.821 269.654 258.712 269.658 258.598 269.711C258.485 269.763 258.323 269.875 258.113 270.045L257.994 269.91C258.239 269.717 258.575 269.431 259.002 269.053C259.388 268.71 259.669 268.449 259.846 268.268L259.965 268.403C259.811 268.555 259.711 268.677 259.663 268.767C259.61 268.862 259.604 268.959 259.645 269.06C259.686 269.16 259.781 269.295 259.933 269.466L262.892 272.808C263.043 272.979 263.166 273.091 263.26 273.143C263.355 273.196 263.452 273.202 263.552 273.161C263.648 273.124 263.781 273.039 263.95 272.904L264.07 273.039C263.869 273.193 263.589 273.429 263.23 273.747L262.509 274.399C262.427 274.479 262.333 274.567 262.225 274.662C261.7 275.128 261.191 275.363 260.697 275.367C260.208 275.376 259.785 275.178 259.427 274.774C259.208 274.527 259.053 274.239 258.963 273.91C258.872 273.59 258.891 273.236 259.021 272.849C259.146 272.465 259.426 272.08 259.862 271.694L260.38 271.234ZM262.28 274.385C262.419 274.262 262.511 274.152 262.555 274.057C262.594 273.966 262.592 273.868 262.547 273.763C262.502 273.659 262.409 273.525 262.265 273.364L260.499 271.369L260.048 271.769C259.608 272.159 259.409 272.545 259.449 272.926C259.489 273.315 259.685 273.707 260.035 274.103C260.42 274.538 260.792 274.782 261.15 274.833C261.504 274.889 261.88 274.739 262.28 274.385Z" fill="#2A2B2D"/>
<path d="M248.538 284.864C248.709 284.731 248.826 284.621 248.89 284.534C248.948 284.449 248.963 284.355 248.935 284.251C248.907 284.146 248.828 284 248.698 283.813L246.164 280.138C246.034 279.95 245.926 279.825 245.838 279.761C245.751 279.698 245.657 279.678 245.558 279.703C245.453 279.732 245.309 279.802 245.124 279.915L245.022 279.767C245.24 279.639 245.561 279.428 245.985 279.135C246.385 278.858 246.694 278.634 246.911 278.463L247.013 278.611C246.842 278.744 246.727 278.852 246.669 278.936C246.605 279.024 246.587 279.12 246.616 279.224C246.644 279.329 246.723 279.475 246.852 279.662L248.079 281.44L250.486 279.778L249.259 278C249.13 277.812 249.021 277.687 248.934 277.623C248.846 277.56 248.753 277.54 248.653 277.565C248.549 277.594 248.404 277.664 248.22 277.777L248.118 277.629C248.355 277.487 248.673 277.278 249.073 277.002C249.498 276.708 249.809 276.483 250.006 276.325L250.108 276.473C249.937 276.606 249.822 276.714 249.764 276.798C249.7 276.886 249.683 276.982 249.711 277.086C249.739 277.191 249.818 277.337 249.948 277.524L252.483 281.199C252.612 281.387 252.72 281.512 252.808 281.576C252.896 281.639 252.991 281.657 253.096 281.628C253.195 281.604 253.337 281.535 253.522 281.422L253.624 281.57C253.406 281.698 253.085 281.909 252.661 282.202C252.266 282.475 251.957 282.699 251.736 282.874L251.633 282.726C251.804 282.593 251.922 282.483 251.985 282.396C252.044 282.311 252.059 282.217 252.03 282.113C252.002 282.008 251.923 281.862 251.794 281.675L250.588 279.926L248.181 281.589L249.387 283.337C249.517 283.525 249.625 283.65 249.713 283.714C249.8 283.777 249.896 283.795 250 283.766C250.1 283.742 250.242 283.673 250.426 283.56L250.529 283.708C250.291 283.85 249.973 284.059 249.573 284.335C249.148 284.629 248.837 284.854 248.64 285.012L248.538 284.864Z" fill="#2A2B2D"/>
<path d="M237.436 291.664C236.931 291.929 236.43 292.047 235.933 292.016C235.431 291.988 234.962 291.811 234.526 291.484C234.088 291.166 233.711 290.706 233.396 290.105C233.09 289.521 232.927 288.946 232.908 288.38C232.884 287.816 233 287.308 233.256 286.855C233.508 286.404 233.878 286.051 234.367 285.794C234.871 285.529 235.375 285.41 235.877 285.438C236.374 285.468 236.842 285.643 237.28 285.962C237.716 286.288 238.091 286.752 238.406 287.353C238.712 287.937 238.878 288.511 238.902 289.074C238.921 289.64 238.805 290.148 238.554 290.599C238.297 291.052 237.924 291.408 237.436 291.664ZM237.392 291.504C237.732 291.325 237.97 291.048 238.104 290.672C238.237 290.305 238.263 289.871 238.184 289.37C238.099 288.873 237.913 288.35 237.626 287.803C237.336 287.25 237.004 286.805 236.63 286.466C236.25 286.13 235.868 285.917 235.482 285.828C235.097 285.739 234.739 285.781 234.41 285.954C234.07 286.133 233.834 286.406 233.702 286.773C233.567 287.149 233.542 287.586 233.627 288.084C233.706 288.584 233.889 289.108 234.176 289.655C234.466 290.208 234.801 290.652 235.181 290.988C235.555 291.327 235.935 291.541 236.32 291.63C236.705 291.719 237.063 291.677 237.392 291.504Z" fill="#2A2B2D"/>
<path d="M221.994 298.257C221.882 297.843 221.765 297.477 221.644 297.157C221.538 296.877 221.442 296.65 221.357 296.477L221.551 296.403C221.76 296.818 221.937 297.117 222.083 297.299C222.231 297.486 222.407 297.596 222.612 297.627C222.818 297.665 223.095 297.617 223.443 297.485L223.898 297.313L222.083 292.524C221.993 292.289 221.906 292.126 221.821 292.036C221.736 291.947 221.629 291.904 221.502 291.907C221.375 291.91 221.183 291.954 220.927 292.039L220.863 291.87C221.161 291.777 221.576 291.629 222.109 291.426C222.67 291.213 223.082 291.047 223.345 290.928L223.409 291.097C223.161 291.204 222.988 291.298 222.891 291.38C222.793 291.462 222.743 291.565 222.738 291.688C222.734 291.812 222.776 291.992 222.865 292.227L224.68 297.016L225.135 296.843C225.482 296.711 225.721 296.563 225.851 296.398C225.983 296.239 226.043 296.04 226.029 295.801C226.018 295.568 225.953 295.227 225.834 294.778L226.027 294.704C226.079 294.89 226.157 295.124 226.264 295.404C226.385 295.724 226.541 296.075 226.731 296.459C226.259 296.619 225.465 296.911 224.349 297.334C223.238 297.756 222.453 298.063 221.994 298.257Z" fill="#2A2B2D"/>
<path d="M209.059 302.207C208.506 302.344 207.991 302.338 207.516 302.189C207.035 302.042 206.622 301.758 206.277 301.336C205.928 300.921 205.672 300.385 205.51 299.727C205.352 299.086 205.331 298.488 205.448 297.934C205.559 297.382 205.794 296.916 206.152 296.537C206.504 296.16 206.948 295.905 207.483 295.773C208.037 295.637 208.554 295.642 209.035 295.789C209.511 295.937 209.923 296.219 210.272 296.633C210.617 297.055 210.871 297.595 211.033 298.253C211.191 298.894 211.214 299.491 211.103 300.044C210.986 300.598 210.752 301.063 210.4 301.441C210.042 301.819 209.595 302.075 209.059 302.207ZM209.055 302.041C209.428 301.949 209.725 301.737 209.946 301.404C210.162 301.079 210.292 300.664 210.334 300.159C210.371 299.656 210.315 299.104 210.167 298.504C210.018 297.898 209.802 297.386 209.52 296.967C209.232 296.55 208.911 296.252 208.558 296.073C208.206 295.895 207.848 295.85 207.487 295.939C207.114 296.031 206.82 296.24 206.603 296.565C206.382 296.897 206.254 297.315 206.217 297.819C206.175 298.324 206.227 298.876 206.375 299.476C206.524 300.082 206.743 300.594 207.031 301.011C207.313 301.429 207.631 301.728 207.984 301.907C208.337 302.085 208.694 302.13 209.055 302.041Z" fill="#2A2B2D"/>
<path d="M176.361 299.45C176.499 299.246 176.637 299.099 176.775 299.009C176.913 298.919 177.096 298.874 177.324 298.874C177.57 298.874 177.774 298.946 177.936 299.09C178.092 299.234 178.209 299.486 178.287 299.846L178.485 300.746C178.557 301.058 178.626 301.298 178.692 301.466C178.752 301.634 178.845 301.769 178.971 301.871C179.097 301.973 179.274 302.024 179.502 302.024H180.357V299.954C180.357 299.726 180.339 299.561 180.303 299.459C180.267 299.357 180.201 299.288 180.105 299.252C180.003 299.216 179.844 299.192 179.628 299.18V299C179.904 299.018 180.285 299.027 180.771 299.027C181.287 299.027 181.671 299.018 181.923 299V299.18C181.707 299.192 181.551 299.216 181.455 299.252C181.353 299.288 181.284 299.357 181.248 299.459C181.212 299.561 181.194 299.726 181.194 299.954V304.418C181.194 304.646 181.212 304.811 181.248 304.913C181.284 305.015 181.353 305.084 181.455 305.12C181.551 305.156 181.707 305.18 181.923 305.192V305.372C181.671 305.354 181.305 305.345 180.825 305.345L179.853 305.354C179.739 305.36 179.61 305.363 179.466 305.363C178.77 305.363 178.236 305.216 177.864 304.922C177.486 304.634 177.297 304.259 177.297 303.797C177.297 303.563 177.354 303.326 177.468 303.086C177.576 302.852 177.762 302.639 178.026 302.447C178.284 302.261 178.623 302.135 179.043 302.069L178.935 302.051C178.539 301.985 178.251 301.865 178.071 301.691C177.891 301.517 177.759 301.241 177.675 300.863L177.45 299.945C177.39 299.669 177.327 299.477 177.261 299.369C177.195 299.261 177.105 299.207 176.991 299.207C176.889 299.207 176.805 299.234 176.739 299.288C176.667 299.342 176.586 299.429 176.496 299.549L176.361 299.45ZM179.691 305.192C179.877 305.192 180.018 305.171 180.114 305.129C180.204 305.087 180.267 305.012 180.303 304.904C180.339 304.796 180.357 304.634 180.357 304.418V302.204H179.754C179.16 302.204 178.752 302.336 178.53 302.6C178.308 302.864 178.197 303.23 178.197 303.698C178.197 304.19 178.314 304.562 178.548 304.814C178.782 305.066 179.163 305.192 179.691 305.192Z" fill="#2A2B2D"/>
<path d="M163.856 304.62C163.29 304.551 162.811 304.363 162.419 304.055C162.021 303.747 161.736 303.335 161.563 302.818C161.383 302.307 161.334 301.714 161.416 301.041C161.495 300.386 161.688 299.82 161.993 299.344C162.293 298.866 162.677 298.514 163.146 298.287C163.609 298.059 164.114 297.978 164.662 298.045C165.228 298.114 165.71 298.302 166.108 298.611C166.5 298.918 166.785 299.327 166.965 299.839C167.138 300.356 167.184 300.95 167.102 301.623C167.023 302.279 166.833 302.845 166.533 303.322C166.228 303.799 165.843 304.151 165.381 304.379C164.912 304.606 164.403 304.686 163.856 304.62ZM163.911 304.463C164.292 304.51 164.645 304.416 164.969 304.184C165.287 303.957 165.555 303.614 165.774 303.157C165.986 302.7 166.13 302.164 166.204 301.551C166.279 300.931 166.259 300.376 166.144 299.884C166.022 299.392 165.828 299 165.561 298.707C165.294 298.415 164.976 298.246 164.607 298.202C164.226 298.155 163.876 298.246 163.559 298.473C163.234 298.706 162.966 299.051 162.753 299.508C162.535 299.965 162.388 300.501 162.314 301.114C162.238 301.734 162.262 302.289 162.383 302.782C162.499 303.273 162.69 303.665 162.957 303.958C163.223 304.25 163.541 304.418 163.911 304.463Z" fill="#2A2B2D"/>
<path d="M147.712 301.311C147.45 301.246 147.229 301.201 147.05 301.175L147.093 301.001C147.402 301.002 147.694 300.806 147.971 300.411L151.329 295.621L151.399 295.639L151.469 295.656L152.247 301.678C152.298 302.074 152.453 302.31 152.712 302.386L152.669 302.561C152.44 302.486 152.131 302.401 151.74 302.304C151.239 302.181 150.864 302.098 150.615 302.055L150.658 301.88C150.883 301.923 151.05 301.933 151.161 301.911C151.264 301.893 151.33 301.826 151.358 301.71C151.383 301.611 151.382 301.465 151.355 301.273L150.809 296.68L148.474 300.025C148.28 300.311 148.163 300.535 148.122 300.698C148.078 300.879 148.11 301.026 148.218 301.139C148.32 301.251 148.499 301.341 148.753 301.41L148.71 301.585C148.383 301.485 148.05 301.394 147.712 301.311Z" fill="#2A2B2D"/>
<path d="M133.557 296.465C133.763 296.53 133.92 296.564 134.028 296.567C134.131 296.567 134.217 296.526 134.287 296.443C134.357 296.361 134.432 296.213 134.513 296L136.095 291.825C136.176 291.612 136.217 291.451 136.22 291.343C136.222 291.235 136.185 291.147 136.108 291.079C136.026 291.01 135.885 290.931 135.688 290.843L135.751 290.675C136.003 290.789 136.356 290.933 136.811 291.105C137.293 291.288 137.655 291.416 137.897 291.489L137.833 291.657C137.627 291.592 137.473 291.559 137.37 291.558C137.262 291.556 137.173 291.596 137.103 291.679C137.034 291.761 136.958 291.909 136.877 292.122L135.295 296.296C135.215 296.51 135.173 296.67 135.17 296.779C135.168 296.887 135.208 296.976 135.291 297.046C135.368 297.113 135.505 297.191 135.703 297.279L135.639 297.447C135.41 297.341 135.054 297.196 134.571 297.013C134.123 296.843 133.763 296.716 133.493 296.633L133.557 296.465Z" fill="#2A2B2D"/>
<path d="M121.321 291.134C121.002 290.967 120.755 290.779 120.579 290.572C120.404 290.364 120.253 290.122 120.127 289.846C120.093 289.768 120.055 289.717 120.013 289.695C119.907 289.639 119.754 289.762 119.555 290.064L119.372 289.968C119.574 289.634 119.905 289.028 120.365 288.152L120.548 288.248C120.426 288.624 120.349 288.899 120.319 289.073C120.286 289.252 120.289 289.44 120.328 289.637C120.379 289.928 120.502 290.189 120.699 290.421C120.888 290.656 121.125 290.848 121.412 290.999C121.758 291.18 122.12 291.225 122.5 291.133C122.875 291.039 123.246 290.817 123.612 290.467C123.976 290.123 124.307 289.666 124.605 289.097C124.909 288.518 125.092 287.981 125.156 287.486C125.219 286.99 125.172 286.563 125.016 286.202C124.851 285.845 124.596 285.575 124.251 285.394C123.985 285.255 123.701 285.17 123.398 285.14C123.096 285.109 122.82 285.158 122.57 285.284C122.386 285.377 122.225 285.496 122.088 285.641C121.951 285.786 121.77 286.023 121.543 286.351L121.36 286.255C121.839 285.341 122.163 284.698 122.331 284.325L122.515 284.421C122.441 284.6 122.403 284.732 122.398 284.818C122.386 284.906 122.406 284.964 122.459 284.992C122.502 285.014 122.569 285.022 122.66 285.016C122.988 284.972 123.285 284.962 123.55 284.986C123.813 285.015 124.098 285.111 124.406 285.272C124.91 285.537 125.294 285.885 125.557 286.314C125.814 286.74 125.936 287.225 125.923 287.767C125.901 288.311 125.733 288.884 125.418 289.484C125.112 290.069 124.734 290.531 124.285 290.871C123.83 291.208 123.346 291.401 122.832 291.45C122.314 291.496 121.81 291.391 121.321 291.134Z" fill="#2A2B2D"/>
<path d="M106.242 281.421C106.427 281.534 106.571 281.604 106.676 281.633C106.775 281.658 106.869 281.638 106.956 281.575C107.044 281.511 107.152 281.386 107.282 281.198L109.816 277.523C109.946 277.336 110.025 277.19 110.053 277.085C110.081 276.981 110.066 276.887 110.008 276.802C109.944 276.715 109.827 276.605 109.656 276.472L109.758 276.324C109.955 276.482 110.266 276.708 110.691 277.001C111.091 277.277 111.409 277.486 111.647 277.628L111.545 277.776C111.36 277.663 111.218 277.595 111.119 277.57C111.014 277.541 110.918 277.559 110.831 277.622C110.743 277.686 110.635 277.811 110.505 277.999L109.279 279.777L111.685 281.439L112.912 279.661C113.041 279.474 113.12 279.328 113.149 279.223C113.177 279.119 113.162 279.025 113.103 278.94C113.04 278.853 112.922 278.743 112.752 278.61L112.854 278.462C113.071 278.634 113.379 278.857 113.779 279.134C114.203 279.427 114.525 279.638 114.742 279.766L114.64 279.914C114.455 279.801 114.313 279.733 114.214 279.708C114.11 279.679 114.014 279.697 113.926 279.76C113.839 279.824 113.73 279.949 113.601 280.137L111.066 283.812C110.936 283.999 110.858 284.145 110.829 284.25C110.801 284.354 110.819 284.45 110.882 284.538C110.941 284.622 111.055 284.731 111.226 284.863L111.124 285.011C110.927 284.853 110.616 284.628 110.191 284.334C109.797 284.062 109.478 283.852 109.236 283.707L109.338 283.559C109.522 283.672 109.667 283.742 109.771 283.771C109.871 283.796 109.964 283.776 110.052 283.713C110.139 283.649 110.248 283.524 110.377 283.336L111.583 281.588L109.177 279.925L107.97 281.674C107.841 281.861 107.762 282.007 107.734 282.112C107.706 282.216 107.723 282.312 107.787 282.4C107.845 282.484 107.96 282.593 108.131 282.725L108.029 282.873C107.812 282.702 107.503 282.478 107.103 282.202C106.679 281.908 106.358 281.697 106.14 281.569L106.242 281.421Z" fill="#2A2B2D"/>
<path d="M88.7112 260.547L89.9234 259.472C90.094 259.321 90.2016 259.193 90.2461 259.09C90.2906 258.986 90.2865 258.878 90.2339 258.764C90.1813 258.65 90.07 258.488 89.9 258.278L90.0347 258.159C90.2281 258.404 90.5137 258.74 90.8915 259.167C91.2336 259.554 91.4948 259.835 91.6754 260.012L91.5407 260.131C91.3885 259.977 91.2671 259.877 91.1766 259.829C91.082 259.776 90.9846 259.77 90.8844 259.811C90.7843 259.852 90.6489 259.948 90.4782 260.099L87.1378 263.06C86.9672 263.211 86.8557 263.334 86.8032 263.429C86.7508 263.523 86.7449 263.621 86.7856 263.721C86.8223 263.817 86.9077 263.95 87.0419 264.119L86.9072 264.239C86.7536 264.038 86.5178 263.758 86.1996 263.399L85.5485 262.677C85.4685 262.596 85.3807 262.501 85.2852 262.393C84.8199 261.868 84.5852 261.358 84.581 260.865C84.5724 260.375 84.7701 259.951 85.1742 259.593C85.4211 259.374 85.7088 259.219 86.0372 259.129C86.3572 259.037 86.7108 259.057 87.0981 259.186C87.4814 259.312 87.866 259.592 88.2518 260.028L88.7112 260.547ZM85.5624 262.448C85.6856 262.587 85.7948 262.679 85.8899 262.723C85.981 262.763 86.0789 262.76 86.1835 262.715C86.2882 262.671 86.4214 262.577 86.583 262.433L88.5765 260.666L88.1768 260.215C87.787 259.774 87.4018 259.575 87.0212 259.615C86.6321 259.656 86.24 259.851 85.8449 260.201C85.4094 260.587 85.1659 260.959 85.1145 261.318C85.0591 261.672 85.2084 262.048 85.5624 262.448Z" fill="#2A2B2D"/>
<path d="M75.0976 248.694C75.2302 248.864 75.3402 248.982 75.4277 249.045C75.5119 249.104 75.6061 249.119 75.7105 249.091C75.8148 249.062 75.9608 248.983 76.1484 248.854L79.8215 246.317C80.0091 246.187 80.1346 246.079 80.1981 245.991C80.2616 245.903 80.2809 245.81 80.256 245.71C80.2277 245.606 80.1572 245.461 80.0444 245.277L80.1925 245.175C80.3208 245.392 80.5314 245.713 80.8244 246.138C81.1003 246.538 81.3241 246.847 81.4956 247.064L81.3475 247.166C81.215 246.995 81.1067 246.88 81.0225 246.822C80.935 246.758 80.839 246.741 80.7347 246.769C80.6303 246.797 80.4843 246.876 80.2967 247.006L78.5194 248.233L80.1803 250.641L81.9576 249.413C82.1452 249.284 82.2707 249.175 82.3342 249.088C82.3977 249 82.417 248.907 82.3921 248.807C82.3638 248.703 82.2933 248.558 82.1805 248.374L82.3286 248.271C82.4705 248.509 82.6794 248.827 82.9554 249.227C83.2484 249.652 83.4738 249.963 83.6317 250.16L83.4836 250.263C83.3511 250.092 83.2428 249.977 83.1586 249.918C83.0711 249.855 82.9752 249.837 82.8708 249.866C82.7664 249.894 82.6204 249.973 82.4328 250.102L78.7598 252.639C78.5722 252.769 78.4467 252.878 78.3832 252.965C78.3197 253.053 78.3021 253.149 78.3304 253.253C78.3553 253.353 78.4241 253.495 78.5369 253.679L78.3888 253.782C78.2605 253.564 78.0499 253.243 77.7569 252.818C77.4843 252.423 77.2606 252.114 77.0857 251.893L77.2338 251.79C77.3663 251.961 77.4763 252.078 77.5638 252.142C77.648 252.201 77.7422 252.216 77.8466 252.187C77.951 252.159 78.0969 252.08 78.2845 251.95L80.0322 250.743L78.3713 248.336L76.6237 249.543C76.4361 249.672 76.3105 249.781 76.2471 249.868C76.1836 249.956 76.166 250.052 76.1943 250.157C76.2192 250.256 76.288 250.398 76.4008 250.583L76.2527 250.685C76.1108 250.448 75.9018 250.129 75.6259 249.729C75.3329 249.304 75.1074 248.993 74.9495 248.796L75.0976 248.694Z" fill="#2A2B2D"/>
<path d="M68.309 237.581C68.0442 237.076 67.9271 236.575 67.9577 236.078C67.9854 235.576 68.1627 235.106 68.4896 234.67C68.8084 234.232 69.268 233.855 69.8682 233.54C70.4525 233.233 71.0276 233.07 71.5934 233.05C72.1564 233.026 72.6644 233.142 73.1175 233.399C73.5678 233.65 73.9212 234.02 74.1776 234.509C74.4423 235.014 74.5608 235.518 74.5331 236.02C74.5025 236.517 74.3279 236.985 74.0091 237.424C73.6822 237.86 73.2186 238.235 72.6184 238.551C72.034 238.857 71.4604 239.023 70.8974 239.048C70.3316 239.067 69.8236 238.951 69.3732 238.699C68.9201 238.443 68.5654 238.07 68.309 237.581ZM68.4691 237.538C68.6475 237.878 68.9245 238.115 69.3001 238.25C69.6676 238.382 70.1014 238.409 70.6016 238.329C71.099 238.244 71.6213 238.058 72.1685 237.77C72.7209 237.48 73.1665 237.148 73.5054 236.773C73.8414 236.394 74.054 236.011 74.143 235.625C74.2321 235.24 74.1902 234.882 74.0174 234.553C73.8391 234.213 73.5662 233.976 73.1987 233.844C72.8231 233.709 72.3865 233.684 71.8891 233.769C71.3889 233.849 70.8653 234.033 70.3181 234.32C69.7657 234.61 69.3214 234.945 68.9854 235.325C68.6466 235.699 68.4326 236.079 68.3435 236.465C68.2545 236.851 68.2963 237.208 68.4691 237.538Z" fill="#2A2B2D"/>
<path d="M61.7279 222.13C62.1411 222.018 62.5075 221.902 62.8273 221.78C63.1077 221.674 63.3345 221.578 63.5077 221.493L63.581 221.687C63.1661 221.895 62.8676 222.073 62.6856 222.219C62.4979 222.367 62.3883 222.544 62.3568 222.748C62.3196 222.955 62.3669 223.232 62.4987 223.58L62.671 224.034L67.4588 222.217C67.6944 222.128 67.857 222.041 67.9466 221.955C68.0361 221.87 68.0793 221.764 68.076 221.637C68.0728 221.509 68.0289 221.318 67.9444 221.061L68.1127 220.997C68.2065 221.295 68.3544 221.711 68.5564 222.244C68.769 222.805 68.9348 223.217 69.0537 223.48L68.8854 223.543C68.7785 223.295 68.6841 223.122 68.6023 223.025C68.5205 222.928 68.4178 222.877 68.2942 222.873C68.1706 222.868 67.991 222.911 67.7554 223L62.9676 224.817L63.1399 225.271C63.2717 225.619 63.42 225.858 63.5848 225.988C63.7439 226.12 63.9428 226.18 64.1815 226.166C64.4146 226.155 64.7556 226.089 65.2046 225.97L65.2779 226.164C65.092 226.215 64.8588 226.294 64.5784 226.401C64.2586 226.522 63.907 226.678 63.5236 226.868C63.364 226.396 63.0726 225.602 62.6494 224.485C62.2284 223.374 61.9212 222.589 61.7279 222.13Z" fill="#2A2B2D"/>
<path d="M57.7853 209.188C57.649 208.634 57.6551 208.12 57.8037 207.644C57.9509 207.163 58.2354 206.75 58.6571 206.405C59.0715 206.056 59.6079 205.8 60.2662 205.637C60.907 205.479 61.5044 205.459 62.0584 205.575C62.6109 205.686 63.0765 205.921 63.455 206.278C63.8322 206.63 64.0867 207.074 64.2188 207.61C64.3551 208.164 64.3497 208.681 64.2025 209.162C64.0539 209.638 63.7723 210.05 63.3579 210.4C62.9362 210.745 62.3962 210.998 61.7379 211.161C61.0971 211.319 60.5004 211.342 59.9479 211.231C59.3939 211.115 58.9283 210.88 58.5512 210.528C58.1726 210.171 57.9173 209.724 57.7853 209.188ZM57.9512 209.184C58.0431 209.557 58.2552 209.854 58.5877 210.074C58.9129 210.291 59.3279 210.42 59.8326 210.463C60.336 210.499 60.8877 210.443 61.4877 210.295C62.0935 210.146 62.6058 209.93 63.0243 209.648C63.4415 209.359 63.7395 209.039 63.9182 208.685C64.0969 208.332 64.1418 207.975 64.0529 207.614C63.961 207.241 63.7525 206.947 63.4273 206.73C63.0948 206.509 62.6769 206.381 62.1736 206.344C61.6688 206.302 61.1164 206.355 60.5164 206.503C59.9105 206.652 59.399 206.871 58.9819 207.159C58.5633 207.442 58.2646 207.759 58.0859 208.112C57.9071 208.466 57.8623 208.823 57.9512 209.184Z" fill="#2A2B2D"/>
<path d="M60.55 176.478C60.754 176.616 60.901 176.754 60.991 176.892C61.081 177.03 61.126 177.213 61.126 177.441C61.126 177.687 61.054 177.891 60.91 178.053C60.766 178.209 60.514 178.326 60.154 178.404L59.254 178.602C58.942 178.674 58.702 178.743 58.534 178.809C58.366 178.869 58.231 178.962 58.129 179.088C58.027 179.214 57.976 179.391 57.976 179.619V180.474H60.046C60.274 180.474 60.439 180.456 60.541 180.42C60.643 180.384 60.712 180.318 60.748 180.222C60.784 180.12 60.808 179.961 60.82 179.745H61C60.982 180.021 60.973 180.402 60.973 180.888C60.973 181.404 60.982 181.788 61 182.04H60.82C60.808 181.824 60.784 181.668 60.748 181.572C60.712 181.47 60.643 181.401 60.541 181.365C60.439 181.329 60.274 181.311 60.046 181.311H55.582C55.354 181.311 55.189 181.329 55.087 181.365C54.985 181.401 54.916 181.47 54.88 181.572C54.844 181.668 54.82 181.824 54.808 182.04H54.628C54.646 181.788 54.655 181.422 54.655 180.942L54.646 179.97C54.64 179.856 54.637 179.727 54.637 179.583C54.637 178.887 54.784 178.353 55.078 177.981C55.366 177.603 55.741 177.414 56.203 177.414C56.437 177.414 56.674 177.471 56.914 177.585C57.148 177.693 57.361 177.879 57.553 178.143C57.739 178.401 57.865 178.74 57.931 179.16L57.949 179.052C58.015 178.656 58.135 178.368 58.309 178.188C58.483 178.008 58.759 177.876 59.137 177.792L60.055 177.567C60.331 177.507 60.523 177.444 60.631 177.378C60.739 177.312 60.793 177.222 60.793 177.108C60.793 177.006 60.766 176.922 60.712 176.856C60.658 176.784 60.571 176.703 60.451 176.613L60.55 176.478ZM54.808 179.808C54.808 179.994 54.829 180.135 54.871 180.231C54.913 180.321 54.988 180.384 55.096 180.42C55.204 180.456 55.366 180.474 55.582 180.474H57.796V179.871C57.796 179.277 57.664 178.869 57.4 178.647C57.136 178.425 56.77 178.314 56.302 178.314C55.81 178.314 55.438 178.431 55.186 178.665C54.934 178.899 54.808 179.28 54.808 179.808Z" fill="#2A2B2D"/>
<path d="M55.3797 163.963C55.4484 163.397 55.6365 162.918 55.9439 162.526C56.2521 162.128 56.6645 161.843 57.1811 161.67C57.6925 161.49 58.2847 161.441 58.9578 161.523C59.613 161.603 60.1789 161.795 60.6555 162.101C61.1329 162.401 61.4851 162.785 61.7123 163.254C61.9401 163.717 62.0208 164.222 61.9543 164.77C61.8856 165.336 61.6971 165.818 61.3889 166.215C61.0815 166.607 60.672 166.893 60.1607 167.073C59.644 167.246 59.0492 167.291 58.3761 167.209C57.721 167.13 57.1547 166.94 56.6773 166.641C56.2007 166.335 55.8485 165.951 55.6206 165.488C55.3934 165.019 55.3131 164.511 55.3797 163.963ZM55.5361 164.018C55.4899 164.399 55.583 164.752 55.8156 165.076C56.043 165.394 56.3851 165.662 56.8421 165.881C57.2998 166.094 57.8354 166.237 58.4489 166.312C59.0683 166.387 59.6238 166.367 60.1153 166.251C60.6076 166.13 60.9998 165.935 61.2921 165.669C61.5844 165.402 61.753 165.084 61.7978 164.715C61.8441 164.334 61.7535 163.984 61.5262 163.666C61.2936 163.342 60.9484 163.073 60.4908 162.861C60.0338 162.642 59.4985 162.495 58.8851 162.421C58.2656 162.346 57.7098 162.369 57.2175 162.49C56.726 162.606 56.3341 162.797 56.0418 163.064C55.7495 163.331 55.581 163.649 55.5361 164.018Z" fill="#2A2B2D"/>
<path d="M58.6807 147.817C58.7453 147.555 58.7904 147.334 58.8159 147.155L58.9907 147.198C58.9889 147.506 59.1856 147.799 59.5809 148.076L64.3704 151.435L64.3531 151.505L64.3359 151.575L58.3144 152.352C57.9188 152.403 57.6829 152.558 57.6066 152.817L57.4319 152.774C57.5067 152.545 57.5923 152.236 57.6884 151.845C57.8118 151.344 57.8949 150.969 57.9377 150.72L58.1125 150.763C58.0696 150.988 58.0593 151.155 58.0815 151.266C58.0993 151.369 58.1665 151.435 58.283 151.464C58.382 151.488 58.5275 151.487 58.7195 151.46L63.3121 150.915L59.9668 148.579C59.6809 148.385 59.4564 148.268 59.2933 148.227C59.1127 148.183 58.9658 148.215 58.8527 148.323C58.741 148.425 58.6507 148.603 58.5817 148.858L58.407 148.815C58.5062 148.487 58.5975 148.155 58.6807 147.817Z" fill="#2A2B2D"/>
<path d="M63.5181 133.654C63.4528 133.86 63.4188 134.017 63.4164 134.126C63.416 134.228 63.4571 134.314 63.5397 134.384C63.6223 134.454 63.7702 134.529 63.9834 134.61L68.1569 136.194C68.3701 136.275 68.5308 136.317 68.6389 136.319C68.747 136.322 68.8349 136.285 68.9026 136.208C68.9724 136.125 69.0512 135.985 69.1389 135.787L69.3072 135.851C69.1926 136.103 69.0492 136.456 68.8769 136.91C68.694 137.393 68.5664 137.755 68.4939 137.997L68.3256 137.933C68.3909 137.727 68.4238 137.573 68.4241 137.47C68.4266 137.362 68.3866 137.273 68.304 137.203C68.2214 137.133 68.0735 137.058 67.8603 136.977L63.6867 135.393C63.4736 135.312 63.3129 135.27 63.2048 135.268C63.0967 135.265 63.0077 135.305 62.9379 135.388C62.8702 135.465 62.7925 135.602 62.7047 135.8L62.5364 135.736C62.6426 135.507 62.7871 135.151 62.97 134.669C63.1401 134.22 63.2667 133.86 63.3498 133.59L63.5181 133.654Z" fill="#2A2B2D"/>
<path d="M68.8384 121.409C69.0056 121.091 69.1929 120.843 69.4002 120.668C69.6076 120.492 69.8493 120.341 70.1255 120.215C70.2039 120.181 70.2543 120.144 70.2766 120.101C70.3324 119.995 70.2092 119.842 69.9072 119.643L70.0034 119.459C70.3375 119.662 70.9428 119.993 71.8193 120.454L71.7231 120.637C71.3472 120.514 71.0723 120.438 70.8985 120.407C70.7194 120.374 70.5315 120.377 70.3349 120.416C70.0441 120.467 69.7827 120.591 69.5508 120.787C69.3164 120.976 69.1239 121.214 68.9734 121.501C68.7923 121.846 68.7476 122.209 68.8395 122.589C68.9341 122.964 69.1563 123.335 69.506 123.702C69.8504 124.065 70.3068 124.397 70.8752 124.695C71.4542 124.999 71.9913 125.183 72.4864 125.247C72.9816 125.31 73.4091 125.264 73.7691 125.107C74.1265 124.942 74.3957 124.687 74.5769 124.342C74.7162 124.076 74.8009 123.792 74.831 123.489C74.8611 123.186 74.8128 122.91 74.6862 122.661C74.5932 122.476 74.4742 122.316 74.3293 122.179C74.1844 122.042 73.9478 121.86 73.6195 121.633L73.7157 121.45C74.6293 121.93 75.2723 122.254 75.6447 122.422L75.5486 122.605C75.3702 122.532 75.2382 122.493 75.1524 122.489C75.0641 122.476 75.006 122.497 74.9781 122.55C74.9558 122.592 74.9478 122.659 74.9541 122.751C74.9987 123.079 75.009 123.376 74.985 123.641C74.9557 123.904 74.8603 124.189 74.6986 124.497C74.4339 125.002 74.087 125.386 73.6579 125.648C73.2316 125.906 72.7476 126.028 72.2058 126.014C71.6616 125.993 71.0893 125.824 70.489 125.509C69.9047 125.202 69.4425 124.824 69.1025 124.374C68.7652 123.919 68.5721 123.435 68.5231 122.921C68.4769 122.402 68.582 121.898 68.8384 121.409Z" fill="#2A2B2D"/>
<path d="M78.5377 106.319C78.425 106.504 78.3544 106.649 78.3261 106.753C78.3012 106.852 78.3205 106.946 78.384 107.034C78.4475 107.121 78.5731 107.23 78.7607 107.359L82.4337 109.896C82.6213 110.026 82.7673 110.105 82.8716 110.133C82.976 110.161 83.0703 110.146 83.1544 110.088C83.2419 110.024 83.352 109.907 83.4845 109.736L83.6326 109.838C83.4747 110.036 83.2492 110.347 82.9562 110.771C82.6803 111.171 82.4714 111.49 82.3295 111.728L82.1813 111.625C82.2941 111.441 82.3629 111.299 82.3878 111.199C82.4161 111.095 82.3985 110.999 82.3351 110.911C82.2716 110.823 82.146 110.715 81.9584 110.585L80.1812 109.358L78.5203 111.765L80.2976 112.993C80.4852 113.123 80.6312 113.202 80.7355 113.23C80.8399 113.258 80.9341 113.243 81.0183 113.185C81.1058 113.121 81.2158 113.004 81.3484 112.833L81.4965 112.935C81.3249 113.152 81.1012 113.461 80.8252 113.861C80.5322 114.285 80.3216 114.607 80.1933 114.824L80.0452 114.722C80.158 114.537 80.2268 114.395 80.2517 114.296C80.28 114.191 80.2624 114.095 80.1989 114.008C80.1355 113.92 80.0099 113.812 79.8223 113.682L76.1493 111.145C75.9617 111.015 75.8157 110.936 75.7113 110.908C75.607 110.88 75.511 110.897 75.4235 110.961C75.3393 111.019 75.231 111.134 75.0985 111.305L74.9504 111.203C75.1083 111.006 75.3337 110.695 75.6267 110.27C75.8993 109.875 76.1082 109.556 76.2535 109.314L76.4016 109.416C76.2888 109.601 76.2183 109.745 76.19 109.85C76.1651 109.949 76.1844 110.043 76.2479 110.13C76.3114 110.218 76.4369 110.326 76.6245 110.456L78.3722 111.663L80.033 109.255L78.2854 108.048C78.0978 107.919 77.9518 107.84 77.8474 107.811C77.7431 107.783 77.6471 107.801 77.5596 107.864C77.4755 107.923 77.3671 108.038 77.2346 108.209L77.0865 108.106C77.258 107.889 77.4818 107.581 77.7577 107.181C78.0507 106.756 78.2614 106.435 78.3896 106.217L78.5377 106.319Z" fill="#2A2B2D"/>
<path d="M99.3854 88.7656L100.459 89.9786C100.61 90.1493 100.738 90.2569 100.841 90.3014C100.945 90.3459 101.053 90.3419 101.167 90.2892C101.281 90.2366 101.442 90.1252 101.652 89.9551L101.772 90.0898C101.526 90.2833 101.19 90.5691 100.764 90.9473C100.378 91.2896 100.096 91.551 99.9198 91.7317L99.8005 91.5969C99.9541 91.4446 100.055 91.3232 100.103 91.2325C100.155 91.1379 100.161 91.0405 100.121 90.9402C100.08 90.84 99.984 90.7045 99.8329 90.5338L96.8738 87.1915C96.7227 87.0208 96.5998 86.9092 96.5053 86.8567C96.4107 86.8042 96.3133 86.7983 96.2132 86.839C96.1175 86.8757 95.9848 86.9613 95.8152 87.0956L95.6959 86.9608C95.8964 86.8071 96.1762 86.5711 96.5354 86.2526L97.2568 85.6011C97.3381 85.521 97.4327 85.4332 97.5404 85.3376C98.0657 84.872 98.575 84.637 99.0681 84.6328C99.5573 84.6242 99.9808 84.822 100.339 85.2263C100.558 85.4734 100.712 85.7612 100.803 86.0898C100.894 86.41 100.875 86.7638 100.745 87.1514C100.62 87.535 100.339 87.9198 99.9039 88.3059L99.3854 88.7656ZM97.4854 85.6149C97.3462 85.7383 97.2546 85.8476 97.2107 85.9427C97.1711 86.0339 97.1737 86.1318 97.2184 86.2365C97.263 86.3413 97.3569 86.4745 97.5001 86.6362L99.266 88.6309L99.7173 88.2308C100.157 87.8408 100.357 87.4553 100.316 87.0745C100.276 86.6851 100.081 86.2928 99.7309 85.8975C99.3451 85.4617 98.9732 85.2181 98.6152 85.1667C98.2616 85.1113 97.885 85.2607 97.4854 85.6149Z" fill="#2A2B2D"/>
<path d="M111.228 75.1359C111.057 75.2685 110.939 75.3786 110.876 75.4662C110.817 75.5504 110.802 75.6447 110.831 75.7492C110.859 75.8536 110.938 75.9996 111.067 76.1873L113.602 79.8619C113.731 80.0496 113.84 80.1752 113.927 80.2387C114.015 80.3022 114.108 80.3215 114.208 80.2965C114.312 80.2682 114.457 80.1976 114.641 80.0847L114.743 80.2329C114.526 80.3613 114.205 80.5721 113.78 80.8654C113.38 81.1416 113.072 81.3655 112.855 81.5372L112.753 81.389C112.924 81.2564 113.039 81.1479 113.097 81.0638C113.161 80.9762 113.178 80.8801 113.15 80.7757C113.122 80.6713 113.043 80.5252 112.913 80.3376L111.687 78.5595L109.28 80.2219L110.507 81.9999C110.636 82.1876 110.744 82.3132 110.832 82.3767C110.92 82.4402 111.013 82.4595 111.112 82.4345C111.217 82.4062 111.361 82.3356 111.546 82.2227L111.648 82.3709C111.411 82.5129 111.092 82.722 110.692 82.9982C110.268 83.2915 109.957 83.5171 109.76 83.6752L109.658 83.527C109.828 83.3944 109.943 83.2859 110.002 83.2018C110.065 83.1142 110.083 83.0181 110.054 82.9137C110.026 82.8093 109.947 82.6632 109.818 82.4756L107.283 78.801C107.154 78.6133 107.045 78.4877 106.958 78.4242C106.87 78.3607 106.774 78.3431 106.67 78.3715C106.57 78.3964 106.428 78.4653 106.244 78.5782L106.142 78.43C106.359 78.3016 106.68 78.0908 107.105 77.7975C107.5 77.5247 107.808 77.3008 108.03 77.1257L108.132 77.2739C107.961 77.4065 107.844 77.5166 107.781 77.6042C107.722 77.6884 107.707 77.7827 107.735 77.8872C107.763 77.9916 107.842 78.1376 107.972 78.3253L109.178 80.0737L111.585 78.4114L110.379 76.663C110.249 76.4753 110.141 76.3497 110.053 76.2862C109.965 76.2227 109.87 76.2051 109.765 76.2335C109.666 76.2584 109.524 76.3273 109.339 76.4402L109.237 76.292C109.474 76.15 109.793 75.9408 110.193 75.6646C110.617 75.3714 110.928 75.1458 111.125 74.9877L111.228 75.1359Z" fill="#2A2B2D"/>
<path d="M122.33 68.3358C122.835 68.0708 123.335 67.9535 123.832 67.9839C124.335 68.0115 124.804 68.1888 125.239 68.5157C125.678 68.8345 126.054 69.2941 126.369 69.8945C126.676 70.479 126.838 71.0542 126.858 71.6203C126.882 72.1835 126.766 72.6918 126.509 73.1452C126.258 73.5958 125.887 73.9494 125.399 74.2061C124.894 74.4711 124.391 74.5898 123.888 74.5622C123.391 74.5318 122.924 74.3572 122.486 74.0384C122.05 73.7115 121.675 73.2478 121.36 72.6474C121.053 72.0629 120.888 71.489 120.863 70.9258C120.844 70.3598 120.96 69.8515 121.212 69.4009C121.469 68.9475 121.841 68.5925 122.33 68.3358ZM122.373 68.496C122.033 68.6746 121.796 68.9517 121.661 69.3275C121.529 69.6952 121.502 70.1293 121.582 70.6297C121.667 71.1273 121.853 71.6498 122.14 72.197C122.43 72.7496 122.762 73.1954 123.136 73.5342C123.515 73.8703 123.898 74.0828 124.283 74.1718C124.669 74.2608 125.026 74.2188 125.355 74.0459C125.695 73.8673 125.931 73.5942 126.064 73.2265C126.199 72.8507 126.224 72.414 126.139 71.9164C126.059 71.416 125.876 70.8921 125.589 70.3448C125.299 69.7922 124.964 69.3479 124.585 69.0118C124.211 68.673 123.831 68.459 123.445 68.37C123.06 68.2811 122.703 68.323 122.373 68.496Z" fill="#2A2B2D"/>
<path d="M137.772 61.7432C137.884 62.1565 138 62.523 138.121 62.8428C138.228 63.1233 138.323 63.3502 138.408 63.5233L138.215 63.5968C138.006 63.1818 137.829 62.8833 137.683 62.7012C137.534 62.5136 137.358 62.404 137.154 62.3725C136.947 62.3353 136.67 62.3828 136.322 62.5148L135.868 62.6872L137.683 67.4758C137.772 67.7115 137.859 67.8741 137.945 67.9636C138.03 68.0532 138.136 68.0963 138.263 68.093C138.39 68.0897 138.582 68.0458 138.839 67.9612L138.903 68.1295C138.605 68.2234 138.189 68.3715 137.656 68.5737C137.095 68.7866 136.683 68.9525 136.42 69.0715L136.357 68.9032C136.605 68.7962 136.777 68.7018 136.875 68.6199C136.972 68.5381 137.023 68.4353 137.027 68.3117C137.032 68.1881 136.99 68.0084 136.9 67.7728L135.085 62.9842L134.631 63.1566C134.283 63.2886 134.044 63.437 133.914 63.6019C133.782 63.7611 133.723 63.9601 133.736 64.1989C133.748 64.432 133.813 64.7731 133.932 65.2221L133.738 65.2956C133.687 65.1097 133.608 64.8764 133.502 64.5959C133.381 64.2761 133.225 63.9245 133.035 63.541C133.507 63.3812 134.301 63.0894 135.417 62.6658C136.528 62.2443 137.313 61.9367 137.772 61.7432Z" fill="#2A2B2D"/>
<path d="M150.707 57.7929C151.26 57.6564 151.774 57.6624 152.25 57.8109C152.731 57.958 153.144 58.2424 153.489 58.6641C153.838 59.0785 154.094 59.6149 154.256 60.2732C154.414 60.914 154.434 61.5115 154.317 62.0656C154.206 62.6183 153.972 63.084 153.614 63.4627C153.262 63.8399 152.818 64.0947 152.282 64.2268C151.729 64.3633 151.211 64.358 150.73 64.211C150.255 64.0625 149.843 63.781 149.493 63.3666C149.149 62.9449 148.895 62.4049 148.733 61.7466C148.575 61.1057 148.552 60.509 148.663 59.9563C148.779 59.4022 149.014 58.9365 149.366 58.5592C149.724 58.1805 150.171 57.9251 150.707 57.7929ZM150.71 57.9588C150.337 58.0508 150.041 58.2631 149.82 58.5956C149.603 58.9209 149.474 59.336 149.431 59.8409C149.395 60.3443 149.45 60.896 149.598 61.4961C149.747 62.102 149.963 62.6142 150.245 63.0328C150.533 63.4499 150.854 63.7479 151.207 63.9265C151.56 64.1052 151.917 64.15 152.278 64.0609C152.651 63.969 152.946 63.7603 153.162 63.435C153.383 63.1025 153.512 62.6845 153.549 62.181C153.591 61.6762 153.538 61.1237 153.391 60.5237C153.241 59.9178 153.023 59.4062 152.734 58.9891C152.452 58.5705 152.135 58.2719 151.782 58.0932C151.429 57.9146 151.072 57.8698 150.71 57.9588Z" fill="#2A2B2D"/>
</svg>
