<svg width="289" height="289" viewBox="0 0 289 289" fill="none" xmlns="http://www.w3.org/2000/svg">
<path d="M253.838 144.901C253.838 205.145 205.033 253.981 144.83 253.981C84.627 253.981 35.8223 205.145 35.8223 144.901C35.8223 84.6584 84.627 35.8223 144.83 35.8223C205.033 35.8223 253.838 84.6584 253.838 144.901Z" stroke="#FFFAFC"/>
<path d="M147.829 48.3527C147.691 48.5567 147.553 48.7037 147.415 48.7937C147.277 48.8837 147.094 48.9287 146.866 48.9287C146.62 48.9287 146.416 48.8567 146.254 48.7127C146.098 48.5687 145.981 48.3167 145.903 47.9567L145.705 47.0567C145.633 46.7447 145.564 46.5047 145.498 46.3367C145.438 46.1687 145.345 46.0337 145.219 45.9317C145.093 45.8297 144.916 45.7787 144.688 45.7787H143.833V47.8487C143.833 48.0767 143.851 48.2417 143.887 48.3437C143.923 48.4457 143.989 48.5147 144.085 48.5507C144.187 48.5867 144.346 48.6107 144.562 48.6227V48.8027C144.286 48.7847 143.905 48.7757 143.419 48.7757C142.903 48.7757 142.519 48.7847 142.267 48.8027V48.6227C142.483 48.6107 142.639 48.5867 142.735 48.5507C142.837 48.5147 142.906 48.4457 142.942 48.3437C142.978 48.2417 142.996 48.0767 142.996 47.8487V43.3847C142.996 43.1567 142.978 42.9917 142.942 42.8897C142.906 42.7877 142.837 42.7187 142.735 42.6827C142.639 42.6467 142.483 42.6227 142.267 42.6107V42.4307C142.519 42.4487 142.885 42.4577 143.365 42.4577L144.337 42.4487C144.451 42.4427 144.58 42.4397 144.724 42.4397C145.42 42.4397 145.954 42.5867 146.326 42.8807C146.704 43.1687 146.893 43.5437 146.893 44.0057C146.893 44.2397 146.836 44.4767 146.722 44.7167C146.614 44.9507 146.428 45.1637 146.164 45.3557C145.906 45.5417 145.567 45.6677 145.147 45.7337L145.255 45.7517C145.651 45.8177 145.939 45.9377 146.119 46.1117C146.299 46.2857 146.431 46.5617 146.515 46.9397L146.74 47.8577C146.8 48.1337 146.863 48.3257 146.929 48.4337C146.995 48.5417 147.085 48.5957 147.199 48.5957C147.301 48.5957 147.385 48.5687 147.451 48.5147C147.523 48.4607 147.604 48.3737 147.694 48.2537L147.829 48.3527ZM144.499 42.6107C144.313 42.6107 144.172 42.6317 144.076 42.6737C143.986 42.7157 143.923 42.7907 143.887 42.8987C143.851 43.0067 143.833 43.1687 143.833 43.3847V45.5987H144.436C145.03 45.5987 145.438 45.4667 145.66 45.2027C145.882 44.9387 145.993 44.5727 145.993 44.1047C145.993 43.6127 145.876 43.2407 145.642 42.9887C145.408 42.7367 145.027 42.6107 144.499 42.6107Z" fill="#FFFAFC"/>
<path d="M157.448 43.0204C158.013 43.0891 158.492 43.2773 158.884 43.5848C159.282 43.893 159.567 44.3054 159.74 44.8221C159.92 45.3335 159.969 45.9257 159.887 46.5988C159.808 47.254 159.615 47.8199 159.31 48.2965C159.01 48.7738 158.626 49.1261 158.157 49.3532C157.694 49.581 157.189 49.6617 156.641 49.5951C156.075 49.5263 155.593 49.3378 155.195 49.0296C154.804 48.7221 154.518 48.3127 154.338 47.8012C154.165 47.2846 154.119 46.6897 154.201 46.0167C154.281 45.3615 154.47 44.7952 154.77 44.3179C155.075 43.8413 155.46 43.489 155.922 43.2612C156.391 43.0341 156.9 42.9538 157.448 43.0204ZM157.392 43.1769C157.011 43.1306 156.658 43.2237 156.334 43.4563C156.016 43.6836 155.748 44.0258 155.529 44.4827C155.317 44.9404 155.173 45.476 155.099 46.0895C155.024 46.709 155.044 47.2645 155.159 47.756C155.281 48.2482 155.475 48.6405 155.742 48.9328C156.009 49.2251 156.327 49.3937 156.696 49.4386C157.077 49.4849 157.427 49.3944 157.744 49.1671C158.069 48.9345 158.337 48.5894 158.55 48.1317C158.769 47.6747 158.915 47.1395 158.99 46.526C159.065 45.9065 159.041 45.3507 158.92 44.8584C158.804 44.3669 158.613 43.9749 158.346 43.6826C158.08 43.3903 157.762 43.2217 157.392 43.1769Z" fill="#FFFAFC"/>
<path d="M170.997 45.8426C171.259 45.9073 171.48 45.9524 171.659 45.978L171.616 46.1528C171.307 46.1509 171.015 46.3476 170.738 46.7428L167.38 51.5321L167.31 51.5148L167.24 51.4976L166.462 45.475C166.411 45.0794 166.256 44.8434 165.997 44.7671L166.04 44.5923C166.269 44.6672 166.578 44.7528 166.969 44.8491C167.47 44.9727 167.845 45.0559 168.094 45.0987L168.051 45.2735C167.826 45.2306 167.659 45.2202 167.548 45.2424C167.445 45.2602 167.379 45.3273 167.351 45.4438C167.326 45.5429 167.327 45.6884 167.354 45.8804L167.9 50.4739L170.235 47.1286C170.429 46.8428 170.546 46.6183 170.587 46.4552C170.631 46.2746 170.599 46.1277 170.491 46.0145C170.389 45.9028 170.21 45.8124 169.955 45.7433L169.999 45.5686C170.326 45.6679 170.659 45.7593 170.997 45.8426Z" fill="#FFFAFC"/>
<path d="M182.299 49.7873C182.092 49.7219 181.935 49.6879 181.827 49.6854C181.725 49.685 181.638 49.7261 181.569 49.8087C181.499 49.8913 181.424 50.0392 181.343 50.2524L179.761 54.4267C179.68 54.6399 179.638 54.8006 179.636 54.9087C179.633 55.0169 179.67 55.1048 179.747 55.1725C179.83 55.2424 179.97 55.3212 180.168 55.4091L180.104 55.5774C179.852 55.4627 179.499 55.3191 179.045 55.1466C178.563 54.9635 178.2 54.8357 177.958 54.7631L178.022 54.5948C178.228 54.6602 178.383 54.6931 178.485 54.6935C178.593 54.6961 178.682 54.656 178.752 54.5734C178.822 54.4908 178.897 54.3429 178.978 54.1297L180.56 49.9555C180.641 49.7423 180.683 49.5816 180.685 49.4734C180.688 49.3653 180.648 49.2763 180.565 49.2064C180.488 49.1387 180.351 49.0609 180.153 48.973L180.217 48.8047C180.446 48.911 180.802 49.0556 181.284 49.2387C181.733 49.409 182.092 49.5358 182.362 49.619L182.299 49.7873Z" fill="#FFFAFC"/>
<path d="M192.133 54.0234C192.451 54.1908 192.698 54.3782 192.874 54.5857C193.05 54.7932 193.201 55.0351 193.327 55.3114C193.36 55.3899 193.398 55.4403 193.441 55.4627C193.547 55.5185 193.7 55.3953 193.899 55.0932L194.082 55.1895C193.88 55.5237 193.548 56.1292 193.089 57.0059L192.905 56.9097C193.028 56.5336 193.104 56.2586 193.135 56.0847C193.168 55.9055 193.165 55.7176 193.126 55.5208C193.075 55.2299 192.951 54.9684 192.755 54.7363C192.566 54.5017 192.328 54.3091 192.041 54.1585C191.696 53.9771 191.333 53.9324 190.953 54.0241C190.578 54.1187 190.208 54.3409 189.841 54.6906C189.478 55.0351 189.147 55.4916 188.849 56.0601C188.545 56.6393 188.361 57.1765 188.298 57.6719C188.235 58.1673 188.281 58.595 188.438 58.9551C188.603 59.3127 188.858 59.5822 189.203 59.7635C189.469 59.903 189.753 59.9879 190.055 60.018C190.358 60.0482 190.634 60 190.883 59.8734C191.068 59.7804 191.228 59.6614 191.365 59.5165C191.502 59.3716 191.684 59.1349 191.91 58.8066L192.094 58.9028C191.614 59.8167 191.29 60.4599 191.122 60.8324L190.939 60.7362C191.012 60.5578 191.051 60.4257 191.055 60.3398C191.068 60.2515 191.047 60.1934 190.994 60.1655C190.952 60.1432 190.885 60.1351 190.794 60.1414C190.465 60.1859 190.169 60.1961 189.903 60.172C189.641 60.1427 189.356 60.0471 189.048 59.8853C188.543 59.6203 188.16 59.2731 187.897 58.8437C187.64 58.4172 187.518 57.9329 187.531 57.3909C187.552 56.8464 187.72 56.274 188.035 55.6735C188.342 55.089 188.72 54.6268 189.169 54.2867C189.624 53.9495 190.108 53.7564 190.621 53.7075C191.14 53.6614 191.644 53.7667 192.133 54.0234Z" fill="#FFFAFC"/>
<path d="M204.802 62.2787C204.618 62.1658 204.473 62.0952 204.369 62.0669C204.27 62.042 204.176 62.0612 204.089 62.1247C204.001 62.1882 203.893 62.3138 203.763 62.5015L201.228 66.1761C201.099 66.3638 201.02 66.5098 200.992 66.6142C200.964 66.7187 200.979 66.813 201.037 66.8972C201.101 66.9848 201.218 67.0949 201.389 67.2275L201.287 67.3757C201.089 67.2177 200.779 66.992 200.354 66.6988C199.954 66.4226 199.636 66.2134 199.398 66.0714L199.5 65.9232C199.685 66.0361 199.827 66.105 199.926 66.1299C200.031 66.1583 200.127 66.1407 200.214 66.0772C200.302 66.0137 200.41 65.8881 200.54 65.7004L201.766 63.9224L199.36 62.2601L198.133 64.0381C198.004 64.2258 197.925 64.3718 197.896 64.4762C197.868 64.5807 197.883 64.675 197.942 64.7592C198.005 64.8468 198.122 64.9569 198.293 65.0895L198.191 65.2377C197.974 65.066 197.666 64.8421 197.266 64.5659C196.841 64.2726 196.52 64.0618 196.303 63.9334L196.405 63.7852C196.59 63.8981 196.732 63.967 196.831 63.9919C196.935 64.0203 197.031 64.0027 197.119 63.9392C197.206 63.8757 197.315 63.7501 197.444 63.5624L199.979 59.8878C200.109 59.7002 200.187 59.5541 200.216 59.4497C200.244 59.3453 200.226 59.2493 200.163 59.1616C200.104 59.0775 199.99 58.969 199.819 58.8364L199.921 58.6882C200.118 58.8463 200.429 59.0719 200.853 59.3652C201.248 59.638 201.567 59.8471 201.809 59.9925L201.707 60.1407C201.523 60.0278 201.378 59.9572 201.274 59.9289C201.174 59.904 201.081 59.9232 200.993 59.9867C200.906 60.0502 200.797 60.1758 200.668 60.3635L199.462 62.1119L201.868 63.7742L203.074 62.0258C203.204 61.8382 203.283 61.6921 203.311 61.5877C203.339 61.4833 203.322 61.3873 203.258 61.2997C203.2 61.2155 203.085 61.107 202.914 60.9744L203.016 60.8262C203.233 60.9979 203.542 61.2219 203.941 61.4981C204.366 61.7913 204.687 62.0021 204.905 62.1305L204.802 62.2787Z" fill="#FFFAFC"/>
<path d="M218.011 79.2897L216.799 80.3643C216.628 80.5156 216.521 80.643 216.476 80.7466C216.432 80.8502 216.436 80.9589 216.488 81.0726C216.541 81.1863 216.652 81.3483 216.822 81.5584L216.688 81.6778C216.494 81.4322 216.209 81.0961 215.831 80.6693C215.489 80.283 215.227 80.0014 215.047 79.8247L215.182 79.7053C215.334 79.859 215.455 79.9599 215.546 80.0079C215.64 80.0604 215.738 80.0663 215.838 80.0256C215.938 79.9849 216.073 79.8889 216.244 79.7377L219.584 76.7764C219.755 76.6252 219.867 76.5022 219.919 76.4076C219.971 76.313 219.977 76.2156 219.937 76.1153C219.9 76.0195 219.815 75.8868 219.68 75.7171L219.815 75.5977C219.969 75.7983 220.205 76.0784 220.523 76.4377L221.174 77.1595C221.254 77.2409 221.342 77.3355 221.437 77.4433C221.902 77.9689 222.137 78.4785 222.141 78.9719C222.15 79.4614 221.952 79.8852 221.548 80.2434C221.301 80.4624 221.013 80.6172 220.685 80.7078C220.365 80.799 220.011 80.7798 219.624 80.65C219.241 80.5248 218.856 80.2443 218.47 79.8086L218.011 79.2897ZM221.16 77.3883C221.037 77.249 220.927 77.1574 220.832 77.1134C220.741 77.0738 220.643 77.0764 220.539 77.1211C220.434 77.1658 220.301 77.2598 220.139 77.4031L218.146 79.1703L218.546 79.6218C218.935 80.062 219.32 80.2618 219.701 80.221C220.09 80.1808 220.482 79.9855 220.877 79.6353C221.313 79.2492 221.556 78.877 221.608 78.5187C221.663 78.1649 221.514 77.7881 221.16 77.3883Z" fill="#FFFAFC"/>
<path d="M230.007 89.0574C229.874 88.8864 229.764 88.7692 229.676 88.7057C229.592 88.6471 229.498 88.632 229.394 88.6603C229.289 88.6887 229.143 88.7676 228.956 88.8972L225.283 91.4342C225.095 91.5637 224.97 91.6723 224.906 91.7599C224.843 91.8475 224.823 91.9411 224.848 92.0406C224.876 92.145 224.947 92.2895 225.06 92.4741L224.912 92.5764C224.783 92.3588 224.573 92.0375 224.28 91.6128C224.004 91.2127 223.78 90.9042 223.609 90.6873L223.757 90.585C223.889 90.756 223.997 90.8707 224.082 90.9293C224.169 90.9928 224.265 91.0104 224.369 90.9821C224.474 90.9537 224.62 90.8748 224.807 90.7452L226.585 89.5176L224.924 87.1099L223.147 88.3375C222.959 88.467 222.833 88.5756 222.77 88.6632C222.706 88.7508 222.687 88.8444 222.712 88.9438C222.74 89.0483 222.811 89.1928 222.924 89.3774L222.776 89.4797C222.634 89.2423 222.425 88.9235 222.149 88.5235C221.856 88.0987 221.63 87.7878 221.472 87.5906L221.621 87.4883C221.753 87.6592 221.861 87.774 221.946 87.8326C222.033 87.8961 222.129 87.9137 222.233 87.8853C222.338 87.857 222.484 87.778 222.671 87.6485L226.344 85.1115C226.532 84.9819 226.657 84.8733 226.721 84.7857C226.784 84.6981 226.802 84.6021 226.774 84.4977C226.749 84.3982 226.68 84.2562 226.567 84.0716L226.715 83.9693C226.844 84.1869 227.054 84.5081 227.347 84.9329C227.62 85.328 227.844 85.6365 228.019 85.8584L227.87 85.9607C227.738 85.7897 227.628 85.6725 227.54 85.609C227.456 85.5504 227.362 85.5353 227.258 85.5636C227.153 85.592 227.007 85.6709 226.82 85.8005L225.072 87.0076L226.733 89.4153L228.48 88.2082C228.668 88.0786 228.794 87.9701 228.857 87.8825C228.921 87.7949 228.938 87.6988 228.91 87.5944C228.885 87.4949 228.816 87.3529 228.703 87.1683L228.851 87.066C228.993 87.3034 229.202 87.6221 229.478 88.0222C229.771 88.4469 229.997 88.7579 230.155 88.9551L230.007 89.0574Z" fill="#FFFAFC"/>
<path d="M235.257 97.6025C235.522 98.1073 235.639 98.6083 235.609 99.1055C235.581 99.608 235.404 100.077 235.077 100.513C234.758 100.952 234.299 101.329 233.698 101.644C233.114 101.951 232.539 102.114 231.973 102.133C231.41 102.158 230.902 102.042 230.449 101.785C229.999 101.533 229.645 101.163 229.389 100.674C229.124 100.17 229.006 99.666 229.033 99.1634C229.064 98.6662 229.239 98.1984 229.557 97.7598C229.884 97.3239 230.348 96.9482 230.948 96.633C231.532 96.3261 232.106 96.1604 232.669 96.1358C233.235 96.1165 233.743 96.2326 234.193 96.4841C234.646 96.7408 235.001 97.1136 235.257 97.6025ZM235.097 97.6459C234.919 97.3059 234.642 97.0684 234.266 96.9336C233.899 96.8013 233.465 96.775 232.965 96.8547C232.467 96.9398 231.945 97.1259 231.398 97.4133C230.846 97.7034 230.4 98.0357 230.061 98.4102C229.725 98.79 229.513 99.1727 229.423 99.5584C229.334 99.944 229.376 100.302 229.549 100.631C229.727 100.971 230 101.207 230.368 101.34C230.743 101.474 231.18 101.499 231.677 101.414C232.178 101.334 232.701 101.151 233.248 100.864C233.801 100.573 234.245 100.238 234.581 99.8587C234.92 99.4842 235.134 99.1042 235.223 98.7185C235.312 98.3329 235.27 97.9754 235.097 97.6459Z" fill="#FFFAFC"/>
<path d="M240.766 110.641C240.353 110.753 239.986 110.869 239.667 110.991C239.386 111.097 239.159 111.193 238.986 111.278L238.913 111.084C239.328 110.876 239.626 110.698 239.808 110.552C239.996 110.404 240.106 110.227 240.137 110.023C240.174 109.816 240.127 109.539 239.995 109.191L239.823 108.737L235.035 110.554C234.799 110.643 234.637 110.73 234.547 110.816C234.458 110.901 234.415 111.007 234.418 111.134C234.421 111.262 234.465 111.453 234.549 111.71L234.381 111.774C234.287 111.476 234.14 111.06 233.938 110.527C233.725 109.966 233.559 109.554 233.44 109.291L233.609 109.228C233.715 109.476 233.81 109.649 233.892 109.746C233.973 109.843 234.076 109.894 234.2 109.898C234.323 109.903 234.503 109.86 234.738 109.771L239.526 107.954L239.354 107.5C239.222 107.152 239.074 106.913 238.909 106.783C238.75 106.651 238.551 106.591 238.312 106.605C238.079 106.616 237.738 106.682 237.289 106.801L237.216 106.607C237.402 106.556 237.635 106.477 237.916 106.37C238.235 106.249 238.587 106.093 238.97 105.903C239.13 106.375 239.421 107.169 239.844 108.286C240.266 109.397 240.573 110.182 240.766 110.641Z" fill="#FFFAFC"/>
<path d="M243.829 120.723C243.966 121.276 243.96 121.79 243.811 122.266C243.664 122.747 243.379 123.16 242.958 123.505C242.543 123.855 242.007 124.111 241.349 124.273C240.708 124.431 240.11 124.452 239.556 124.335C239.004 124.224 238.538 123.99 238.16 123.632C237.783 123.28 237.528 122.836 237.396 122.3C237.26 121.747 237.265 121.229 237.412 120.748C237.561 120.273 237.842 119.86 238.257 119.511C238.679 119.166 239.219 118.912 239.877 118.75C240.518 118.592 241.114 118.568 241.667 118.679C242.221 118.796 242.687 119.03 243.064 119.382C243.442 119.74 243.697 120.187 243.829 120.723ZM243.664 120.726C243.572 120.354 243.36 120.057 243.027 119.836C242.702 119.619 242.287 119.49 241.782 119.448C241.279 119.411 240.727 119.467 240.127 119.615C239.521 119.764 239.009 119.98 238.59 120.263C238.173 120.551 237.875 120.872 237.697 121.225C237.518 121.578 237.473 121.935 237.562 122.296C237.654 122.669 237.862 122.964 238.188 123.18C238.52 123.401 238.938 123.53 239.441 123.566C239.946 123.608 240.498 123.556 241.098 123.408C241.704 123.258 242.216 123.039 242.633 122.751C243.052 122.469 243.35 122.151 243.529 121.798C243.708 121.445 243.753 121.088 243.664 120.726Z" fill="#FFFAFC"/>
<path d="M241.46 147.924C241.256 147.786 241.109 147.648 241.019 147.51C240.929 147.372 240.884 147.189 240.884 146.961C240.884 146.715 240.956 146.511 241.1 146.349C241.244 146.193 241.496 146.076 241.856 145.998L242.756 145.8C243.068 145.728 243.308 145.659 243.476 145.593C243.644 145.533 243.779 145.44 243.881 145.314C243.983 145.188 244.034 145.011 244.034 144.783V143.928H241.964C241.736 143.928 241.571 143.946 241.469 143.982C241.367 144.018 241.298 144.084 241.262 144.18C241.226 144.282 241.202 144.441 241.19 144.657H241.01C241.028 144.381 241.037 144 241.037 143.514C241.037 142.998 241.028 142.614 241.01 142.362H241.19C241.202 142.578 241.226 142.734 241.262 142.83C241.298 142.932 241.367 143.001 241.469 143.037C241.571 143.073 241.736 143.091 241.964 143.091H246.428C246.656 143.091 246.821 143.073 246.923 143.037C247.025 143.001 247.094 142.932 247.13 142.83C247.166 142.734 247.19 142.578 247.202 142.362H247.382C247.364 142.614 247.355 142.98 247.355 143.46L247.364 144.432C247.37 144.546 247.373 144.675 247.373 144.819C247.373 145.515 247.226 146.049 246.932 146.421C246.644 146.799 246.269 146.988 245.807 146.988C245.573 146.988 245.336 146.931 245.096 146.817C244.862 146.709 244.649 146.523 244.457 146.259C244.271 146.001 244.145 145.662 244.079 145.242L244.061 145.35C243.995 145.746 243.875 146.034 243.701 146.214C243.527 146.394 243.251 146.526 242.873 146.61L241.955 146.835C241.679 146.895 241.487 146.958 241.379 147.024C241.271 147.09 241.217 147.18 241.217 147.294C241.217 147.396 241.244 147.48 241.298 147.546C241.352 147.618 241.439 147.699 241.559 147.789L241.46 147.924ZM247.202 144.594C247.202 144.408 247.181 144.267 247.139 144.171C247.097 144.081 247.022 144.018 246.914 143.982C246.806 143.946 246.644 143.928 246.428 143.928H244.214V144.531C244.214 145.125 244.346 145.533 244.61 145.755C244.874 145.977 245.24 146.088 245.708 146.088C246.2 146.088 246.572 145.971 246.824 145.737C247.076 145.503 247.202 145.122 247.202 144.594Z" fill="#FFFAFC"/>
<path d="M245.794 157.546C245.725 158.112 245.537 158.591 245.229 158.983C244.921 159.381 244.509 159.666 243.992 159.839C243.481 160.018 242.889 160.067 242.216 159.986C241.561 159.906 240.995 159.713 240.518 159.408C240.041 159.108 239.688 158.724 239.461 158.255C239.233 157.792 239.153 157.286 239.219 156.739C239.288 156.173 239.476 155.691 239.784 155.293C240.092 154.901 240.501 154.616 241.012 154.436C241.529 154.263 242.124 154.217 242.797 154.299C243.452 154.379 244.018 154.569 244.496 154.868C244.972 155.174 245.325 155.558 245.553 156.021C245.78 156.49 245.86 156.998 245.794 157.546ZM245.637 157.491C245.683 157.11 245.59 156.757 245.358 156.433C245.13 156.115 244.788 155.847 244.331 155.628C243.873 155.415 243.338 155.272 242.724 155.197C242.105 155.122 241.549 155.142 241.058 155.257C240.566 155.379 240.173 155.573 239.881 155.84C239.589 156.106 239.42 156.424 239.376 156.794C239.329 157.175 239.42 157.524 239.647 157.842C239.88 158.167 240.225 158.435 240.683 158.648C241.14 158.867 241.675 159.013 242.288 159.088C242.908 159.163 243.464 159.14 243.956 159.018C244.447 158.903 244.839 158.712 245.132 158.445C245.424 158.178 245.592 157.86 245.637 157.491Z" fill="#FFFAFC"/>
<path d="M242.976 171.101C242.912 171.364 242.867 171.584 242.841 171.763L242.666 171.72C242.668 171.412 242.471 171.119 242.076 170.842L237.287 167.483L237.304 167.413L237.321 167.343L243.343 166.566C243.738 166.515 243.974 166.36 244.05 166.101L244.225 166.144C244.15 166.373 244.065 166.682 243.969 167.073C243.845 167.574 243.762 167.949 243.719 168.198L243.545 168.155C243.587 167.93 243.598 167.763 243.576 167.653C243.558 167.549 243.491 167.483 243.374 167.455C243.275 167.43 243.129 167.431 242.938 167.458L238.345 168.003L241.69 170.339C241.976 170.533 242.201 170.651 242.364 170.691C242.544 170.735 242.691 170.704 242.804 170.595C242.916 170.493 243.006 170.315 243.075 170.06L243.25 170.103C243.151 170.431 243.06 170.764 242.976 171.101Z" fill="#FFFAFC"/>
<path d="M239.038 182.41C239.104 182.203 239.137 182.046 239.14 181.938C239.14 181.835 239.099 181.749 239.017 181.679C238.934 181.61 238.786 181.534 238.573 181.453L234.399 179.869C234.186 179.789 234.026 179.747 233.917 179.744C233.809 179.742 233.721 179.779 233.654 179.856C233.584 179.939 233.505 180.079 233.417 180.276L233.249 180.213C233.364 179.961 233.507 179.608 233.679 179.153C233.862 178.671 233.99 178.309 234.062 178.067L234.231 178.13C234.165 178.337 234.132 178.491 234.132 178.594C234.13 178.702 234.17 178.791 234.252 178.861C234.335 178.93 234.483 179.006 234.696 179.087L238.87 180.671C239.083 180.752 239.243 180.793 239.351 180.796C239.46 180.798 239.549 180.758 239.618 180.676C239.686 180.599 239.764 180.461 239.852 180.264L240.02 180.327C239.914 180.557 239.769 180.913 239.586 181.395C239.416 181.844 239.29 182.203 239.206 182.473L239.038 182.41Z" fill="#FFFAFC"/>
<path d="M234.81 192.25C234.643 192.569 234.456 192.816 234.248 192.992C234.041 193.168 233.799 193.319 233.523 193.445C233.444 193.478 233.394 193.516 233.372 193.559C233.316 193.665 233.439 193.818 233.741 194.017L233.645 194.2C233.311 193.998 232.706 193.666 231.829 193.206L231.925 193.023C232.301 193.145 232.576 193.222 232.75 193.252C232.929 193.285 233.117 193.282 233.314 193.243C233.604 193.193 233.866 193.069 234.098 192.872C234.332 192.684 234.524 192.446 234.675 192.159C234.856 191.814 234.901 191.451 234.809 191.071C234.714 190.695 234.492 190.325 234.142 189.958C233.798 189.594 233.342 189.263 232.773 188.964C232.194 188.66 231.657 188.477 231.162 188.413C230.667 188.35 230.239 188.396 229.879 188.553C229.522 188.717 229.253 188.972 229.072 189.318C228.932 189.584 228.847 189.868 228.817 190.17C228.787 190.473 228.836 190.749 228.962 190.999C229.055 191.183 229.174 191.344 229.319 191.481C229.464 191.618 229.701 191.8 230.029 192.027L229.933 192.21C229.019 191.73 228.376 191.406 228.004 191.237L228.1 191.054C228.278 191.128 228.41 191.166 228.496 191.171C228.584 191.183 228.642 191.163 228.67 191.11C228.693 191.067 228.701 191 228.694 190.909C228.65 190.581 228.639 190.284 228.663 190.018C228.693 189.756 228.788 189.471 228.95 189.162C229.215 188.658 229.561 188.274 229.991 188.011C230.417 187.754 230.901 187.632 231.443 187.646C231.987 187.667 232.559 187.835 233.159 188.151C233.744 188.458 234.206 188.836 234.546 189.286C234.883 189.741 235.076 190.225 235.125 190.739C235.172 191.258 235.066 191.761 234.81 192.25Z" fill="#FFFAFC"/>
<path d="M226.566 204.929C226.679 204.745 226.749 204.6 226.778 204.496C226.803 204.396 226.783 204.303 226.72 204.215C226.656 204.128 226.531 204.019 226.343 203.89L222.67 201.353C222.483 201.223 222.337 201.144 222.232 201.116C222.128 201.087 222.034 201.102 221.949 201.161C221.862 201.225 221.752 201.342 221.619 201.513L221.471 201.41C221.629 201.213 221.855 200.902 222.148 200.478C222.424 200.077 222.633 199.759 222.774 199.521L222.923 199.624C222.81 199.808 222.741 199.95 222.716 200.05C222.688 200.154 222.705 200.25 222.769 200.338C222.832 200.425 222.958 200.534 223.145 200.664L224.923 201.891L226.584 199.483L224.806 198.256C224.619 198.126 224.473 198.047 224.368 198.019C224.264 197.991 224.17 198.006 224.086 198.064C223.998 198.128 223.888 198.245 223.756 198.416L223.607 198.314C223.779 198.097 224.003 197.788 224.279 197.388C224.572 196.963 224.782 196.642 224.911 196.425L225.059 196.527C224.946 196.712 224.877 196.854 224.852 196.953C224.824 197.057 224.841 197.154 224.905 197.241C224.968 197.329 225.094 197.437 225.282 197.567L228.955 200.104C229.142 200.233 229.288 200.312 229.393 200.341C229.497 200.369 229.593 200.351 229.68 200.288C229.765 200.229 229.873 200.115 230.005 199.944L230.153 200.046C229.996 200.243 229.77 200.554 229.477 200.979C229.205 201.374 228.996 201.693 228.85 201.935L228.702 201.833C228.815 201.648 228.886 201.504 228.914 201.399C228.939 201.3 228.919 201.206 228.856 201.119C228.792 201.031 228.667 200.922 228.479 200.793L226.732 199.586L225.071 201.993L226.818 203.201C227.006 203.33 227.152 203.409 227.256 203.437C227.361 203.466 227.457 203.448 227.544 203.385C227.628 203.326 227.737 203.211 227.869 203.04L228.017 203.143C227.846 203.36 227.622 203.668 227.346 204.068C227.053 204.493 226.843 204.814 226.714 205.032L226.566 204.929Z" fill="#FFFAFC"/>
<path d="M209.576 218.156L208.502 216.943C208.351 216.772 208.224 216.664 208.12 216.62C208.017 216.575 207.908 216.579 207.794 216.632C207.681 216.685 207.519 216.796 207.309 216.966L207.19 216.831C207.435 216.638 207.771 216.352 208.197 215.974C208.584 215.632 208.865 215.37 209.042 215.19L209.161 215.324C209.007 215.477 208.906 215.598 208.858 215.689C208.806 215.783 208.8 215.881 208.841 215.981C208.881 216.081 208.977 216.217 209.129 216.387L212.088 219.73C212.239 219.9 212.362 220.012 212.456 220.065C212.551 220.117 212.648 220.123 212.748 220.082C212.844 220.046 212.977 219.96 213.146 219.826L213.266 219.96C213.065 220.114 212.785 220.35 212.426 220.669L211.705 221.32C211.623 221.4 211.529 221.488 211.421 221.584C210.896 222.049 210.386 222.284 209.893 222.288C209.404 222.297 208.981 222.099 208.623 221.695C208.404 221.448 208.249 221.16 208.159 220.831C208.068 220.511 208.087 220.157 208.216 219.77C208.342 219.386 208.622 219.001 209.057 218.615L209.576 218.156ZM211.476 221.306C211.615 221.183 211.707 221.074 211.751 220.979C211.79 220.887 211.788 220.789 211.743 220.685C211.698 220.58 211.604 220.447 211.461 220.285L209.695 218.29L209.244 218.69C208.804 219.08 208.605 219.466 208.645 219.847C208.685 220.236 208.88 220.628 209.23 221.024C209.616 221.46 209.988 221.703 210.346 221.755C210.7 221.81 211.076 221.661 211.476 221.306Z" fill="#FFFAFC"/>
<path d="M199.817 230.164C199.988 230.032 200.105 229.921 200.169 229.834C200.227 229.75 200.243 229.655 200.214 229.551C200.186 229.447 200.107 229.3 199.978 229.113L197.443 225.438C197.313 225.251 197.205 225.125 197.117 225.061C197.03 224.998 196.936 224.979 196.837 225.004C196.733 225.032 196.588 225.103 196.404 225.215L196.301 225.067C196.519 224.939 196.84 224.728 197.265 224.435C197.664 224.159 197.973 223.935 198.19 223.763L198.292 223.911C198.121 224.044 198.006 224.152 197.948 224.236C197.884 224.324 197.867 224.42 197.895 224.524C197.923 224.629 198.002 224.775 198.132 224.963L199.358 226.741L201.765 225.078L200.538 223.3C200.409 223.113 200.3 222.987 200.213 222.923C200.125 222.86 200.032 222.841 199.932 222.866C199.828 222.894 199.684 222.965 199.499 223.077L199.397 222.929C199.634 222.787 199.953 222.578 200.353 222.302C200.777 222.009 201.088 221.783 201.285 221.625L201.387 221.773C201.216 221.906 201.102 222.014 201.043 222.098C200.98 222.186 200.962 222.282 200.99 222.386C201.019 222.491 201.098 222.637 201.227 222.825L203.762 226.499C203.891 226.687 204 226.812 204.087 226.876C204.175 226.939 204.271 226.957 204.375 226.929C204.475 226.904 204.617 226.835 204.801 226.722L204.903 226.87C204.686 226.999 204.365 227.209 203.94 227.503C203.545 227.775 203.237 227.999 203.015 228.174L202.913 228.026C203.084 227.894 203.201 227.783 203.264 227.696C203.323 227.612 203.338 227.517 203.31 227.413C203.281 227.309 203.203 227.162 203.073 226.975L201.867 225.226L199.46 226.889L200.666 228.637C200.796 228.825 200.904 228.95 200.992 229.014C201.079 229.077 201.175 229.095 201.28 229.067C201.379 229.042 201.521 228.973 201.706 228.86L201.808 229.008C201.571 229.15 201.252 229.359 200.852 229.635C200.427 229.929 200.117 230.154 199.92 230.312L199.817 230.164Z" fill="#FFFAFC"/>
<path d="M191.28 235.425C190.776 235.69 190.275 235.807 189.778 235.777C189.275 235.749 188.806 235.572 188.371 235.245C187.933 234.926 187.556 234.466 187.241 233.866C186.934 233.281 186.772 232.706 186.753 232.14C186.728 231.577 186.844 231.069 187.101 230.615C187.353 230.165 187.723 229.811 188.211 229.554C188.716 229.289 189.219 229.171 189.722 229.198C190.219 229.229 190.686 229.403 191.125 229.722C191.56 230.049 191.936 230.513 192.251 231.113C192.557 231.697 192.723 232.271 192.747 232.835C192.766 233.401 192.65 233.909 192.398 234.36C192.142 234.813 191.769 235.168 191.28 235.425ZM191.237 235.264C191.577 235.086 191.814 234.809 191.949 234.433C192.081 234.065 192.108 233.631 192.028 233.131C191.943 232.633 191.758 232.111 191.47 231.563C191.181 231.011 190.849 230.565 190.474 230.226C190.095 229.89 189.712 229.678 189.327 229.589C188.941 229.5 188.584 229.542 188.255 229.715C187.915 229.893 187.679 230.166 187.546 230.534C187.411 230.91 187.386 231.346 187.471 231.844C187.551 232.344 187.734 232.868 188.021 233.416C188.311 233.968 188.646 234.412 189.025 234.749C189.399 235.087 189.779 235.301 190.165 235.39C190.55 235.479 190.907 235.437 191.237 235.264Z" fill="#FFFAFC"/>
<path d="M178.249 240.942C178.137 240.529 178.021 240.163 177.899 239.843C177.793 239.562 177.698 239.335 177.613 239.162L177.806 239.089C178.015 239.504 178.192 239.802 178.338 239.984C178.486 240.172 178.663 240.282 178.867 240.313C179.074 240.35 179.351 240.303 179.699 240.171L180.153 239.998L178.338 235.21C178.249 234.974 178.161 234.812 178.076 234.722C177.991 234.632 177.885 234.589 177.758 234.593C177.631 234.596 177.439 234.64 177.182 234.724L177.118 234.556C177.416 234.462 177.832 234.314 178.365 234.112C178.926 233.899 179.338 233.733 179.6 233.614L179.664 233.782C179.416 233.889 179.243 233.984 179.146 234.066C179.049 234.148 178.998 234.25 178.993 234.374C178.989 234.498 179.031 234.677 179.121 234.913L180.935 239.701L181.39 239.529C181.738 239.397 181.977 239.249 182.107 239.084C182.239 238.924 182.298 238.725 182.285 238.487C182.273 238.254 182.208 237.913 182.089 237.463L182.283 237.39C182.334 237.576 182.413 237.809 182.519 238.09C182.64 238.409 182.796 238.761 182.986 239.145C182.514 239.304 181.72 239.596 180.604 240.02C179.493 240.441 178.708 240.749 178.249 240.942Z" fill="#FFFAFC"/>
<path d="M168.173 244.011C167.62 244.148 167.106 244.142 166.63 243.993C166.149 243.846 165.736 243.562 165.391 243.14C165.042 242.726 164.786 242.19 164.624 241.531C164.466 240.89 164.446 240.293 164.563 239.739C164.674 239.186 164.908 238.72 165.266 238.342C165.618 237.964 166.062 237.71 166.598 237.578C167.151 237.441 167.669 237.446 168.15 237.593C168.625 237.742 169.037 238.023 169.387 238.438C169.731 238.859 169.985 239.399 170.147 240.058C170.305 240.699 170.328 241.295 170.217 241.848C170.1 242.402 169.866 242.868 169.514 243.245C169.156 243.624 168.709 243.879 168.173 244.011ZM168.17 243.846C168.542 243.754 168.839 243.541 169.06 243.209C169.277 242.883 169.406 242.468 169.449 241.964C169.485 241.46 169.43 240.908 169.282 240.308C169.133 239.702 168.917 239.19 168.635 238.772C168.346 238.354 168.026 238.057 167.673 237.878C167.32 237.699 166.963 237.654 166.602 237.743C166.229 237.835 165.934 238.044 165.718 238.369C165.497 238.702 165.368 239.12 165.331 239.623C165.289 240.128 165.342 240.681 165.489 241.281C165.639 241.887 165.857 242.398 166.146 242.815C166.428 243.234 166.745 243.532 167.098 243.711C167.451 243.89 167.808 243.935 168.17 243.846Z" fill="#FFFAFC"/>
<path d="M140.983 240.647C141.121 240.443 141.259 240.296 141.397 240.206C141.535 240.116 141.718 240.071 141.946 240.071C142.192 240.071 142.396 240.143 142.558 240.287C142.714 240.431 142.831 240.683 142.909 241.043L143.107 241.943C143.179 242.255 143.248 242.495 143.314 242.663C143.374 242.831 143.467 242.966 143.593 243.068C143.719 243.17 143.896 243.221 144.124 243.221H144.979V241.151C144.979 240.923 144.961 240.758 144.925 240.656C144.889 240.554 144.823 240.485 144.727 240.449C144.625 240.413 144.466 240.389 144.25 240.377V240.197C144.526 240.215 144.907 240.224 145.393 240.224C145.909 240.224 146.293 240.215 146.545 240.197V240.377C146.329 240.389 146.173 240.413 146.077 240.449C145.975 240.485 145.906 240.554 145.87 240.656C145.834 240.758 145.816 240.923 145.816 241.151V245.615C145.816 245.843 145.834 246.008 145.87 246.11C145.906 246.212 145.975 246.281 146.077 246.317C146.173 246.353 146.329 246.377 146.545 246.389V246.569C146.293 246.551 145.927 246.542 145.447 246.542L144.475 246.551C144.361 246.557 144.232 246.56 144.088 246.56C143.392 246.56 142.858 246.413 142.486 246.119C142.108 245.831 141.919 245.456 141.919 244.994C141.919 244.76 141.976 244.523 142.09 244.283C142.198 244.049 142.384 243.836 142.648 243.644C142.906 243.458 143.245 243.332 143.665 243.266L143.557 243.248C143.161 243.182 142.873 243.062 142.693 242.888C142.513 242.714 142.381 242.438 142.297 242.06L142.072 241.142C142.012 240.866 141.949 240.674 141.883 240.566C141.817 240.458 141.727 240.404 141.613 240.404C141.511 240.404 141.427 240.431 141.361 240.485C141.289 240.539 141.208 240.626 141.118 240.746L140.983 240.647ZM144.313 246.389C144.499 246.389 144.64 246.368 144.736 246.326C144.826 246.284 144.889 246.209 144.925 246.101C144.961 245.993 144.979 245.831 144.979 245.615V243.401H144.376C143.782 243.401 143.374 243.533 143.152 243.797C142.93 244.061 142.819 244.427 142.819 244.895C142.819 245.387 142.936 245.759 143.17 246.011C143.404 246.263 143.785 246.389 144.313 246.389Z" fill="#FFFAFC"/>
<path d="M131.364 245.98C130.799 245.911 130.32 245.723 129.928 245.415C129.53 245.107 129.245 244.695 129.072 244.178C128.892 243.667 128.843 243.074 128.925 242.401C129.004 241.746 129.197 241.18 129.502 240.704C129.802 240.226 130.186 239.874 130.655 239.647C131.118 239.419 131.623 239.338 132.171 239.405C132.737 239.474 133.219 239.662 133.617 239.97C134.008 240.278 134.294 240.687 134.474 241.199C134.647 241.715 134.693 242.31 134.611 242.983C134.531 243.639 134.342 244.205 134.042 244.682C133.737 245.159 133.352 245.511 132.89 245.739C132.421 245.966 131.912 246.046 131.364 245.98ZM131.42 245.823C131.801 245.869 132.154 245.776 132.478 245.544C132.796 245.316 133.064 244.974 133.283 244.517C133.495 244.06 133.639 243.524 133.713 242.91C133.788 242.291 133.768 241.736 133.653 241.244C133.531 240.752 133.337 240.359 133.07 240.067C132.803 239.775 132.485 239.606 132.116 239.561C131.735 239.515 131.385 239.606 131.068 239.833C130.743 240.066 130.475 240.411 130.262 240.868C130.043 241.325 129.897 241.861 129.822 242.474C129.747 243.093 129.771 243.649 129.892 244.142C130.008 244.633 130.199 245.025 130.466 245.317C130.732 245.61 131.05 245.778 131.42 245.823Z" fill="#FFFAFC"/>
<path d="M117.815 243.158C117.553 243.093 117.332 243.048 117.153 243.022L117.196 242.848C117.505 242.85 117.797 242.653 118.074 242.258L121.432 237.468L121.501 237.486L121.571 237.503L122.349 243.525C122.4 243.921 122.555 244.157 122.815 244.233L122.772 244.408C122.543 244.333 122.233 244.248 121.843 244.151C121.342 244.028 120.967 243.945 120.718 243.902L120.761 243.727C120.985 243.77 121.153 243.78 121.263 243.758C121.367 243.74 121.433 243.673 121.461 243.557C121.486 243.458 121.484 243.312 121.458 243.12L120.911 238.527L118.576 241.872C118.382 242.158 118.265 242.382 118.225 242.545C118.181 242.726 118.213 242.873 118.321 242.986C118.423 243.098 118.601 243.188 118.856 243.257L118.813 243.432C118.485 243.333 118.153 243.241 117.815 243.158Z" fill="#FFFAFC"/>
<path d="M106.513 239.213C106.719 239.278 106.877 239.312 106.985 239.315C107.087 239.315 107.173 239.274 107.243 239.191C107.313 239.109 107.388 238.961 107.469 238.748L109.051 234.573C109.132 234.36 109.174 234.199 109.176 234.091C109.179 233.983 109.141 233.895 109.064 233.827C108.982 233.758 108.842 233.679 108.644 233.591L108.708 233.423C108.959 233.537 109.312 233.681 109.767 233.853C110.249 234.036 110.611 234.164 110.853 234.237L110.79 234.405C110.583 234.34 110.429 234.307 110.326 234.306C110.218 234.304 110.129 234.344 110.06 234.427C109.99 234.509 109.914 234.657 109.834 234.87L108.252 239.045C108.171 239.258 108.129 239.418 108.127 239.527C108.124 239.635 108.164 239.724 108.247 239.794C108.324 239.861 108.461 239.939 108.659 240.027L108.595 240.195C108.366 240.089 108.01 239.944 107.528 239.761C107.079 239.591 106.719 239.464 106.449 239.381L106.513 239.213Z" fill="#FFFAFC"/>
<path d="M96.6793 234.977C96.3605 234.809 96.1133 234.622 95.9376 234.414C95.7619 234.207 95.611 233.965 95.4849 233.689C95.4515 233.61 95.4136 233.56 95.3711 233.537C95.2649 233.482 95.1122 233.605 94.9131 233.907L94.7299 233.811C94.9323 233.476 95.2634 232.871 95.7232 231.994L95.9065 232.09C95.7838 232.466 95.7073 232.741 95.6771 232.915C95.6441 233.094 95.6471 233.282 95.6862 233.479C95.7369 233.77 95.8605 234.032 96.0573 234.264C96.2459 234.498 96.4836 234.691 96.7704 234.842C97.1157 235.023 97.4784 235.068 97.8586 234.976C98.2334 234.881 98.604 234.659 98.9703 234.309C99.3339 233.965 99.6648 233.508 99.963 232.94C100.267 232.361 100.45 231.823 100.514 231.328C100.577 230.833 100.53 230.405 100.374 230.045C100.209 229.687 99.9539 229.418 99.6087 229.236C99.3431 229.097 99.059 229.012 98.7563 228.982C98.4537 228.952 98.1778 229 97.9284 229.127C97.7442 229.22 97.5835 229.339 97.4465 229.483C97.3096 229.628 97.1278 229.865 96.9014 230.193L96.7181 230.097C97.1975 229.183 97.5213 228.54 97.6896 228.168L97.8728 228.264C97.7996 228.442 97.7608 228.574 97.7564 228.66C97.744 228.748 97.7643 228.807 97.8174 228.835C97.8599 228.857 97.9268 228.865 98.0182 228.859C98.3464 228.814 98.6431 228.804 98.9083 228.828C99.1707 228.857 99.4559 228.953 99.764 229.115C100.269 229.38 100.652 229.727 100.915 230.156C101.172 230.583 101.294 231.067 101.281 231.609C101.26 232.154 101.091 232.726 100.777 233.326C100.47 233.911 100.092 234.373 99.6427 234.713C99.188 235.051 98.7039 235.244 98.1905 235.292C97.6717 235.339 97.168 235.233 96.6793 234.977Z" fill="#FFFAFC"/>
<path d="M84.0093 226.721C84.1938 226.834 84.3383 226.905 84.4426 226.933C84.5421 226.958 84.6356 226.939 84.7231 226.875C84.8106 226.812 84.9191 226.686 85.0486 226.498L87.5833 222.824C87.7128 222.636 87.7917 222.49 87.82 222.386C87.8482 222.281 87.8331 222.187 87.7746 222.103C87.7111 222.015 87.5939 221.905 87.423 221.772L87.5252 221.624C87.7223 221.782 88.0332 222.008 88.4577 222.301C88.8576 222.577 89.1762 222.786 89.4135 222.928L89.3113 223.077C89.1268 222.964 88.9848 222.895 88.8854 222.87C88.781 222.841 88.685 222.859 88.5975 222.923C88.51 222.986 88.4015 223.112 88.272 223.299L87.0455 225.077L89.4523 226.74L90.6787 224.962C90.8082 224.774 90.8871 224.628 90.9154 224.524C90.9437 224.419 90.9285 224.325 90.87 224.241C90.8065 224.153 90.6893 224.043 90.5184 223.91L90.6206 223.762C90.8375 223.934 91.1459 224.158 91.5457 224.434C91.9703 224.727 92.2914 224.938 92.5089 225.066L92.4067 225.215C92.2222 225.102 92.0802 225.033 91.9808 225.008C91.8764 224.979 91.7805 224.997 91.6929 225.061C91.6054 225.124 91.4969 225.25 91.3674 225.437L88.8327 229.112C88.7032 229.3 88.6244 229.446 88.5961 229.55C88.5678 229.654 88.5854 229.751 88.6488 229.838C88.7074 229.922 88.8221 230.031 88.993 230.163L88.8908 230.312C88.6937 230.153 88.3829 229.928 87.9583 229.635C87.5633 229.362 87.2447 229.153 87.0025 229.007L87.1047 228.859C87.2892 228.972 87.4337 229.043 87.5381 229.071C87.6375 229.096 87.731 229.077 87.8185 229.013C87.906 228.95 88.0145 228.824 88.144 228.636L89.35 226.888L86.9433 225.226L85.7373 226.974C85.6078 227.162 85.5289 227.308 85.5006 227.412C85.4724 227.516 85.4899 227.613 85.5534 227.7C85.612 227.784 85.7267 227.893 85.8976 228.025L85.7954 228.174C85.5785 228.002 85.2702 227.778 84.8703 227.502C84.4457 227.208 84.1246 226.998 83.9071 226.869L84.0093 226.721Z" fill="#FFFAFC"/>
<path d="M70.8008 209.71L72.013 208.635C72.1836 208.484 72.2912 208.357 72.3357 208.253C72.3802 208.15 72.3762 208.041 72.3236 207.927C72.271 207.813 72.1597 207.651 71.9897 207.441L72.1243 207.322C72.3177 207.568 72.6033 207.904 72.9811 208.33C73.3232 208.717 73.5845 208.998 73.765 209.175L73.6303 209.294C73.4781 209.141 73.3568 209.04 73.2662 208.992C73.1716 208.939 73.0743 208.933 72.9741 208.974C72.8739 209.015 72.7385 209.111 72.5679 209.262L69.2275 212.223C69.0569 212.375 68.9453 212.498 68.8929 212.592C68.8404 212.687 68.8345 212.784 68.8752 212.884C68.9119 212.98 68.9973 213.113 69.1315 213.283L68.9968 213.402C68.8433 213.201 68.6074 212.921 68.2892 212.562L67.6381 211.84C67.5581 211.759 67.4703 211.664 67.3749 211.556C66.9095 211.031 66.6748 210.521 66.6706 210.028C66.662 209.538 66.8597 209.115 67.2638 208.756C67.5107 208.537 67.7984 208.383 68.1268 208.292C68.4468 208.201 68.8004 208.22 69.1877 208.35C69.5711 208.475 69.9556 208.755 70.3414 209.191L70.8008 209.71ZM67.652 211.611C67.7753 211.751 67.8845 211.842 67.9795 211.886C68.0706 211.926 68.1685 211.923 68.2732 211.879C68.3778 211.834 68.511 211.74 68.6726 211.597L70.6661 209.829L70.2664 209.378C69.8766 208.938 69.4914 208.738 69.1108 208.779C68.7217 208.819 68.3296 209.014 67.9345 209.364C67.499 209.751 67.2555 210.123 67.2041 210.481C67.1487 210.835 67.298 211.212 67.652 211.611Z" fill="#FFFAFC"/>
<path d="M58.8055 199.943C58.938 200.114 59.048 200.231 59.1356 200.295C59.2197 200.353 59.314 200.368 59.4183 200.34C59.5227 200.312 59.6687 200.233 59.8563 200.103L63.5293 197.566C63.7169 197.437 63.8425 197.328 63.9059 197.24C63.9694 197.153 63.9887 197.059 63.9638 196.96C63.9355 196.855 63.865 196.711 63.7522 196.526L63.9003 196.424C64.0286 196.641 64.2393 196.963 64.5322 197.387C64.8082 197.787 65.0319 198.096 65.2035 198.313L65.0554 198.415C64.9228 198.244 64.8145 198.13 64.7304 198.071C64.6428 198.007 64.5469 197.99 64.4425 198.018C64.3382 198.047 64.1922 198.125 64.0046 198.255L62.2273 199.483L63.8882 201.89L65.6654 200.663C65.853 200.533 65.9786 200.425 66.0421 200.337C66.1055 200.249 66.1248 200.156 66.1 200.056C66.0717 199.952 66.0011 199.807 65.8883 199.623L66.0365 199.521C66.1784 199.758 66.3873 200.077 66.6633 200.477C66.9562 200.902 67.1817 201.212 67.3396 201.41L67.1915 201.512C67.059 201.341 66.9506 201.226 66.8665 201.168C66.779 201.104 66.683 201.087 66.5786 201.115C66.4743 201.143 66.3283 201.222 66.1407 201.352L62.4677 203.889C62.2801 204.018 62.1545 204.127 62.091 204.215C62.0275 204.302 62.01 204.398 62.0382 204.503C62.0631 204.602 62.132 204.744 62.2447 204.929L62.0966 205.031C61.9684 204.813 61.7577 204.492 61.4647 204.067C61.1922 203.672 60.9684 203.364 60.7935 203.142L60.9416 203.04C61.0741 203.211 61.1842 203.328 61.2717 203.391C61.3558 203.45 61.4501 203.465 61.5544 203.437C61.6588 203.408 61.8048 203.329 61.9924 203.2L63.7401 201.993L62.0792 199.585L60.3315 200.792C60.1439 200.922 60.0184 201.03 59.9549 201.118C59.8914 201.205 59.8738 201.301 59.9021 201.406C59.927 201.505 59.9959 201.647 60.1086 201.832L59.9605 201.934C59.8186 201.697 59.6097 201.378 59.3337 200.978C59.0407 200.553 58.8153 200.242 58.6574 200.045L58.8055 199.943Z" fill="#FFFAFC"/>
<path d="M53.5544 191.398C53.2896 190.893 53.1725 190.392 53.2031 189.895C53.2308 189.392 53.4082 188.923 53.7351 188.487C54.0539 188.048 54.5134 187.671 55.1136 187.356C55.698 187.049 56.273 186.886 56.8388 186.867C57.4018 186.842 57.9098 186.958 58.3629 187.215C58.8133 187.467 59.1666 187.837 59.423 188.326C59.6878 188.83 59.8063 189.334 59.7785 189.837C59.748 190.334 59.5733 190.802 59.2545 191.24C58.9276 191.676 58.464 192.052 57.8638 192.367C57.2795 192.674 56.7058 192.84 56.1428 192.864C55.577 192.883 55.069 192.767 54.6187 192.516C54.1656 192.259 53.8108 191.886 53.5544 191.398ZM53.7145 191.354C53.8929 191.694 54.1699 191.932 54.5455 192.066C54.913 192.199 55.3468 192.225 55.847 192.145C56.3445 192.06 56.8667 191.874 57.4139 191.587C57.9663 191.297 58.412 190.964 58.7508 190.59C59.0868 190.21 59.2994 189.827 59.3885 189.442C59.4775 189.056 59.4357 188.698 59.2629 188.369C59.0845 188.029 58.8116 187.793 58.4441 187.66C58.0685 187.526 57.632 187.501 57.1346 187.586C56.6344 187.666 56.1107 187.849 55.5635 188.136C55.0111 188.427 54.5669 188.762 54.2308 189.141C53.892 189.516 53.678 189.896 53.589 190.281C53.4999 190.667 53.5418 191.025 53.7145 191.354Z" fill="#FFFAFC"/>
<path d="M48.046 178.359C48.4592 178.247 48.8256 178.13 49.1454 178.009C49.4258 177.903 49.6527 177.807 49.8258 177.722L49.8991 177.915C49.4842 178.124 49.1857 178.302 49.0037 178.448C48.816 178.596 48.7064 178.772 48.6749 178.977C48.6377 179.184 48.685 179.461 48.8168 179.809L48.9891 180.263L53.7769 178.446C54.0125 178.357 54.1751 178.269 54.2647 178.184C54.3542 178.099 54.3974 177.992 54.3941 177.865C54.3909 177.738 54.347 177.546 54.2625 177.29L54.4308 177.226C54.5246 177.524 54.6725 177.939 54.8745 178.472C55.0871 179.033 55.2529 179.445 55.3718 179.708L55.2035 179.772C55.0966 179.524 55.0022 179.351 54.9204 179.254C54.8386 179.157 54.7359 179.106 54.6123 179.101C54.4887 179.097 54.3091 179.139 54.0735 179.229L49.2857 181.046L49.458 181.5C49.5898 181.848 49.7381 182.087 49.9029 182.217C50.062 182.349 50.2609 182.408 50.4996 182.395C50.7327 182.383 51.0737 182.318 51.5227 182.199L51.596 182.393C51.4101 182.444 51.177 182.523 50.8965 182.629C50.5767 182.751 50.2251 182.906 49.8417 183.097C49.6821 182.625 49.3907 181.831 48.9675 180.714C48.5465 179.603 48.2393 178.818 48.046 178.359Z" fill="#FFFAFC"/>
<path d="M44.9825 168.277C44.8462 167.724 44.8523 167.21 45.0009 166.734C45.1481 166.253 45.4326 165.84 45.8543 165.495C46.2687 165.145 46.8051 164.889 47.4634 164.727C48.1042 164.569 48.7016 164.548 49.2556 164.665C49.8081 164.776 50.2737 165.01 50.6522 165.368C51.0294 165.72 51.2839 166.164 51.4159 166.7C51.5523 167.253 51.5468 167.771 51.3997 168.252C51.2511 168.727 50.9695 169.14 50.5551 169.489C50.1334 169.834 49.5934 170.088 48.9351 170.25C48.2943 170.408 47.6976 170.432 47.145 170.321C46.591 170.204 46.1255 169.97 45.7484 169.618C45.3698 169.26 45.1145 168.813 44.9825 168.277ZM45.1484 168.274C45.2403 168.646 45.4524 168.943 45.7849 169.164C46.1101 169.381 46.5251 169.51 47.0298 169.552C47.5332 169.589 48.0849 169.533 48.6849 169.385C49.2907 169.236 49.8029 169.02 50.2215 168.737C50.6387 168.449 50.9366 168.128 51.1154 167.775C51.2941 167.422 51.339 167.065 51.25 166.704C51.1582 166.331 50.9497 166.036 50.6245 165.82C50.292 165.599 49.8741 165.47 49.3708 165.434C48.866 165.392 48.3136 165.444 47.7136 165.592C47.1077 165.742 46.5962 165.961 46.1791 166.249C45.7605 166.531 45.4618 166.849 45.2831 167.202C45.1043 167.555 45.0594 167.912 45.1484 168.274Z" fill="#FFFAFC"/>
<path d="M47.3527 141.077C47.5567 141.215 47.7037 141.353 47.7937 141.491C47.8837 141.629 47.9287 141.812 47.9287 142.04C47.9287 142.286 47.8567 142.49 47.7127 142.652C47.5687 142.808 47.3167 142.925 46.9567 143.003L46.0567 143.201C45.7447 143.273 45.5047 143.342 45.3367 143.408C45.1687 143.468 45.0337 143.561 44.9317 143.687C44.8297 143.813 44.7787 143.99 44.7787 144.218V145.073H46.8487C47.0767 145.073 47.2417 145.055 47.3437 145.019C47.4457 144.983 47.5147 144.917 47.5507 144.821C47.5867 144.719 47.6107 144.56 47.6227 144.344H47.8027C47.7847 144.62 47.7757 145.001 47.7757 145.487C47.7757 146.003 47.7847 146.387 47.8027 146.639H47.6227C47.6107 146.423 47.5867 146.267 47.5507 146.171C47.5147 146.069 47.4457 146 47.3437 145.964C47.2417 145.928 47.0767 145.91 46.8487 145.91H42.3847C42.1567 145.91 41.9917 145.928 41.8897 145.964C41.7877 146 41.7187 146.069 41.6827 146.171C41.6467 146.267 41.6227 146.423 41.6107 146.639H41.4307C41.4487 146.387 41.4577 146.021 41.4577 145.541L41.4487 144.569C41.4427 144.455 41.4397 144.326 41.4397 144.182C41.4397 143.486 41.5867 142.952 41.8807 142.58C42.1687 142.202 42.5437 142.013 43.0057 142.013C43.2397 142.013 43.4767 142.07 43.7167 142.184C43.9507 142.292 44.1637 142.478 44.3557 142.742C44.5417 143 44.6677 143.339 44.7337 143.759L44.7517 143.651C44.8177 143.255 44.9377 142.967 45.1117 142.787C45.2857 142.607 45.5617 142.475 45.9397 142.391L46.8577 142.166C47.1337 142.106 47.3257 142.043 47.4337 141.977C47.5417 141.911 47.5957 141.821 47.5957 141.707C47.5957 141.605 47.5687 141.521 47.5147 141.455C47.4607 141.383 47.3737 141.302 47.2537 141.212L47.3527 141.077ZM41.6107 144.407C41.6107 144.593 41.6317 144.734 41.6737 144.83C41.7157 144.92 41.7907 144.983 41.8987 145.019C42.0067 145.055 42.1687 145.073 42.3847 145.073H44.5987V144.47C44.5987 143.876 44.4667 143.468 44.2027 143.246C43.9387 143.024 43.5727 142.913 43.1047 142.913C42.6127 142.913 42.2407 143.03 41.9887 143.264C41.7367 143.498 41.6107 143.879 41.6107 144.407Z" fill="#FFFAFC"/>
<path d="M43.02 131.451C43.0887 130.885 43.2768 130.406 43.5842 130.014C43.8924 129.616 44.3048 129.331 44.8215 129.158C45.3328 128.978 45.9251 128.929 46.5981 129.011C47.2533 129.091 47.8192 129.283 48.2959 129.589C48.7732 129.889 49.1255 130.273 49.3526 130.742C49.5805 131.205 49.6611 131.71 49.5946 132.258C49.5259 132.824 49.3375 133.306 49.0293 133.703C48.7218 134.095 48.3124 134.381 47.801 134.561C47.2844 134.733 46.6895 134.779 46.0165 134.697C45.3613 134.618 44.795 134.428 44.3177 134.128C43.841 133.823 43.4888 133.439 43.2609 132.976C43.0338 132.507 42.9535 131.999 43.02 131.451ZM43.1765 131.506C43.1302 131.887 43.2233 132.24 43.4559 132.564C43.6833 132.882 44.0255 133.15 44.4824 133.369C44.9401 133.582 45.4757 133.725 46.0892 133.8C46.7087 133.875 47.2641 133.855 47.7557 133.739C48.2479 133.617 48.6402 133.423 48.9324 133.157C49.2247 132.89 49.3933 132.572 49.4381 132.203C49.4844 131.821 49.3939 131.472 49.1665 131.154C48.9339 130.83 48.5888 130.561 48.1311 130.349C47.6741 130.13 47.1389 129.983 46.5254 129.909C45.9059 129.834 45.3501 129.857 44.8578 129.978C44.3663 130.094 43.9744 130.285 43.6821 130.552C43.3899 130.819 43.2213 131.137 43.1765 131.506Z" fill="#FFFAFC"/>
<path d="M46.0199 118.112C46.0845 117.85 46.1296 117.63 46.1552 117.451L46.3299 117.494C46.3281 117.802 46.5248 118.095 46.9201 118.372L51.7096 121.731L51.6924 121.801L51.6751 121.871L45.6536 122.648C45.258 122.698 45.0221 122.853 44.9459 123.113L44.7711 123.07C44.846 122.841 44.9315 122.531 45.0276 122.141C45.151 121.64 45.2341 121.265 45.2769 121.016L45.4517 121.059C45.4088 121.283 45.3985 121.451 45.4207 121.561C45.4385 121.665 45.5057 121.731 45.6222 121.759C45.7212 121.784 45.8667 121.783 46.0587 121.756L50.6514 121.211L47.306 118.875C47.0201 118.68 46.7956 118.563 46.6325 118.523C46.4519 118.479 46.3051 118.51 46.1919 118.618C46.0802 118.721 45.9899 118.899 45.9209 119.154L45.7462 119.111C45.8455 118.783 45.9367 118.45 46.0199 118.112Z" fill="#FFFAFC"/>
<path d="M49.7736 106.59C49.7083 106.797 49.6744 106.954 49.6719 107.062C49.6715 107.165 49.7126 107.251 49.7952 107.321C49.8778 107.39 50.0257 107.466 50.2389 107.547L54.4124 109.131C54.6256 109.211 54.7863 109.253 54.8944 109.256C55.0025 109.258 55.0904 109.221 55.1581 109.144C55.2279 109.061 55.3067 108.921 55.3945 108.724L55.5627 108.787C55.4481 109.039 55.3047 109.392 55.1324 109.847C54.9495 110.329 54.8219 110.691 54.7494 110.933L54.5811 110.87C54.6464 110.663 54.6793 110.509 54.6796 110.406C54.6821 110.298 54.6421 110.209 54.5595 110.139C54.4769 110.07 54.329 109.994 54.1158 109.913L49.9422 108.329C49.7291 108.248 49.5684 108.207 49.4603 108.204C49.3522 108.202 49.2632 108.242 49.1934 108.324C49.1257 108.401 49.048 108.539 48.9602 108.736L48.792 108.673C48.8981 108.443 49.0426 108.087 49.2255 107.605C49.3956 107.156 49.5222 106.797 49.6053 106.527L49.7736 106.59Z" fill="#FFFAFC"/>
<path d="M54.0019 96.7492C54.1691 96.4304 54.3564 96.1831 54.5637 96.0074C54.7711 95.8316 55.0128 95.6807 55.289 95.5547C55.3674 95.5213 55.4178 95.4834 55.4401 95.4409C55.4958 95.3346 55.3727 95.1819 55.0707 94.9826L55.1669 94.7993C55.501 95.0019 56.1063 95.3333 56.9828 95.7936L56.8866 95.977C56.5107 95.8541 56.2358 95.7775 56.062 95.7472C55.8829 95.7141 55.695 95.7171 55.4984 95.7561C55.2076 95.8067 54.9462 95.9304 54.7143 96.1271C54.4799 96.3158 54.2874 96.5535 54.1369 96.8405C53.9558 97.1858 53.9111 97.5487 54.003 97.929C54.0976 98.304 54.3198 98.6748 54.6695 99.0415C55.0139 99.4053 55.4703 99.7365 56.0387 100.035C56.6177 100.339 57.1548 100.523 57.6499 100.586C58.1451 100.65 58.5726 100.603 58.9326 100.447C59.29 100.282 59.5592 100.027 59.7404 99.6816C59.8797 99.416 59.9644 99.1318 59.9945 98.829C60.0245 98.5263 59.9763 98.2502 59.8497 98.0007C59.7567 97.8163 59.6377 97.6556 59.4928 97.5185C59.3479 97.3814 59.1113 97.1995 58.783 96.9729L58.8792 96.7896C59.7928 97.2694 60.4358 97.5936 60.8082 97.762L60.7121 97.9453C60.5337 97.872 60.4016 97.8331 60.3159 97.8288C60.2276 97.8163 60.1695 97.8366 60.1416 97.8897C60.1193 97.9322 60.1113 97.9992 60.1176 98.0906C60.1621 98.419 60.1724 98.7158 60.1485 98.9811C60.1192 99.2436 60.0238 99.5289 59.8621 99.8371C59.5974 100.342 59.2504 100.726 58.8214 100.988C58.3951 101.245 57.9111 101.367 57.3693 101.354C56.825 101.332 56.2528 101.164 55.6525 100.849C55.0682 100.542 54.606 100.164 54.266 99.714C53.9287 99.259 53.7356 98.7747 53.6866 98.261C53.6404 97.742 53.7455 97.238 54.0019 96.7492Z" fill="#FFFAFC"/>
<path d="M62.2455 84.0705C62.1327 84.2551 62.0622 84.3997 62.0339 84.5041C62.009 84.6036 62.0283 84.6971 62.0918 84.7847C62.1553 84.8723 62.2808 84.9809 62.4684 85.1105L66.1415 87.6474C66.3291 87.777 66.475 87.856 66.5794 87.8843C66.6838 87.9126 66.778 87.8975 66.8622 87.8389C66.9497 87.7754 67.0597 87.6582 67.1923 87.4872L67.3404 87.5895C67.1825 87.7867 66.957 88.0977 66.664 88.5224C66.3881 88.9225 66.1791 89.2412 66.0372 89.4787L65.8891 89.3764C66.0019 89.1917 66.0707 89.0497 66.0956 88.9502C66.1239 88.8458 66.1063 88.7498 66.0428 88.6622C65.9793 88.5746 65.8538 88.466 65.6662 88.3364L63.8889 87.1088L62.2281 89.5166L64.0053 90.7441C64.1929 90.8737 64.3389 90.9527 64.4433 90.981C64.5477 91.0093 64.6419 90.9942 64.726 90.9357C64.8136 90.8722 64.9236 90.7549 65.0561 90.5839L65.2042 90.6862C65.0327 90.9032 64.809 91.2117 64.533 91.6118C64.24 92.0365 64.0294 92.3577 63.9011 92.5754L63.753 92.4731C63.8658 92.2885 63.9346 92.1464 63.9595 92.0469C63.9878 91.9425 63.9702 91.8465 63.9067 91.7589C63.8432 91.6713 63.7177 91.5627 63.5301 91.4331L59.8571 88.8962C59.6695 88.7666 59.5235 88.6876 59.4191 88.6593C59.3147 88.631 59.2188 88.6485 59.1312 88.7121C59.0471 88.7706 58.9388 88.8854 58.8063 89.0564L58.6582 88.9541C58.8161 88.7569 59.0415 88.4459 59.3345 88.0211C59.607 87.626 59.816 87.3073 59.9613 87.0649L60.1094 87.1672C59.9966 87.3518 59.9261 87.4964 59.8978 87.6008C59.8729 87.7003 59.8922 87.7938 59.9557 87.8814C60.0192 87.969 60.1447 88.0776 60.3323 88.2072L62.08 89.4143L63.7408 87.0065L61.9932 85.7994C61.8056 85.6699 61.6596 85.5909 61.5552 85.5626C61.4508 85.5342 61.3549 85.5518 61.2674 85.6153C61.1832 85.6739 61.0749 85.7887 60.9424 85.9597L60.7943 85.8574C60.9658 85.6404 61.1895 85.3319 61.4655 84.9318C61.7585 84.5071 61.9691 84.1859 62.0974 83.9682L62.2455 84.0705Z" fill="#FFFAFC"/>
<path d="M79.2358 70.8444L80.3097 72.0573C80.4608 72.228 80.5882 72.3356 80.6917 72.3802C80.7952 72.4247 80.9038 72.4206 81.0175 72.368C81.1312 72.3153 81.293 72.2039 81.503 72.0338L81.6223 72.1686C81.3769 72.3621 81.0409 72.6479 80.6144 73.026C80.2283 73.3683 79.9469 73.6298 79.7703 73.8104L79.6509 73.6756C79.8046 73.5234 79.9054 73.4019 79.9534 73.3113C80.0059 73.2167 80.0118 73.1192 79.9711 73.019C79.9304 72.9187 79.8345 72.7832 79.6834 72.6125L76.7243 69.2702C76.5731 69.0995 76.4503 68.9879 76.3557 68.9354C76.2612 68.8829 76.1638 68.877 76.0636 68.9178C75.9679 68.9545 75.8353 69.04 75.6657 69.1743L75.5464 69.0395C75.7469 68.8858 76.0267 68.6498 76.3859 68.3314L77.1073 67.6798C77.1886 67.5997 77.2832 67.5119 77.3909 67.4164C77.9162 66.9507 78.4254 66.7158 78.9186 66.7116C79.4077 66.7029 79.8313 66.9007 80.1893 67.305C80.408 67.5521 80.5627 67.84 80.6533 68.1686C80.7444 68.4887 80.7251 68.8426 80.5954 69.2301C80.4703 69.6137 80.1899 69.9986 79.7544 70.3847L79.2358 70.8444ZM77.3359 67.6937C77.1967 67.8171 77.1051 67.9263 77.0611 68.0214C77.0216 68.1126 77.0242 68.2105 77.0688 68.3153C77.1135 68.42 77.2074 68.5533 77.3506 68.715L79.1165 70.7096L79.5677 70.3096C80.0077 69.9195 80.2074 69.5341 80.1667 69.1532C80.1265 68.7639 79.9314 68.3715 79.5814 67.9762C79.1956 67.5404 78.8237 67.2968 78.4656 67.2454C78.1121 67.19 77.7355 67.3394 77.3359 67.6937Z" fill="#FFFAFC"/>
<path d="M88.9945 58.8353C88.8236 58.9679 88.7064 59.078 88.6429 59.1656C88.5843 59.2498 88.5692 59.3441 88.5975 59.4486C88.6258 59.553 88.7047 59.699 88.8341 59.8867L91.3688 63.5613C91.4983 63.749 91.6068 63.8746 91.6943 63.9381C91.7819 64.0016 91.8754 64.0209 91.9748 63.9959C92.0792 63.9676 92.2236 63.897 92.4082 63.7841L92.5104 63.9323C92.2928 64.0607 91.9717 64.2715 91.5472 64.5648C91.1473 64.841 90.8389 65.0649 90.622 65.2366L90.5198 65.0884C90.6907 64.9558 90.8055 64.8473 90.864 64.7632C90.9275 64.6756 90.9451 64.5795 90.9168 64.4751C90.8885 64.3707 90.8096 64.2246 90.6802 64.037L89.4537 62.259L87.047 63.9213L88.2734 65.6993C88.4029 65.887 88.5114 66.0126 88.5989 66.0761C88.6865 66.1396 88.78 66.1589 88.8794 66.1339C88.9838 66.1056 89.1282 66.035 89.3127 65.9221L89.415 66.0703C89.1776 66.2123 88.859 66.4214 88.4592 66.6976C88.0346 66.9909 87.7237 67.2165 87.5266 67.3746L87.4244 67.2264C87.5953 67.0938 87.71 66.9853 87.7686 66.9012C87.8321 66.8136 87.8497 66.7175 87.8214 66.6131C87.7931 66.5087 87.7142 66.3627 87.5847 66.175L85.05 62.5004C84.9206 62.3127 84.8121 62.1871 84.7245 62.1236C84.637 62.0601 84.541 62.0425 84.4367 62.0709C84.3372 62.0958 84.1952 62.1647 84.0107 62.2776L83.9085 62.1294C84.1261 62.001 84.4471 61.7902 84.8717 61.4969C85.2667 61.2241 85.575 61.0002 85.7968 60.8251L85.8991 60.9733C85.7281 61.1059 85.6109 61.216 85.5475 61.3036C85.4889 61.3878 85.4738 61.4821 85.5021 61.5866C85.5304 61.691 85.6092 61.837 85.7387 62.0247L86.9447 63.7731L89.3515 62.1108L88.1454 60.3624C88.016 60.1747 87.9075 60.0491 87.8199 59.9856C87.7324 59.9221 87.6364 59.9045 87.5321 59.9329C87.4326 59.9578 87.2907 60.0267 87.1061 60.1396L87.0039 59.9914C87.2412 59.8494 87.5598 59.6402 87.9597 59.364C88.3843 59.0708 88.6951 58.8452 88.8923 58.6871L88.9945 58.8353Z" fill="#FFFAFC"/>
<path d="M97.5316 53.5757C98.0362 53.3106 98.537 53.1933 99.034 53.2237C99.5363 53.2514 100.005 53.4286 100.441 53.7555C100.879 54.0743 101.256 54.5339 101.571 55.1344C101.877 55.7188 102.04 56.2941 102.059 56.8601C102.084 57.4234 101.967 57.9317 101.711 58.3851C101.459 58.8357 101.089 59.1893 100.6 59.4459C100.096 59.711 99.5923 59.8297 99.09 59.8021C98.593 59.7717 98.1254 59.5971 97.6872 59.2782C97.2515 58.9513 96.8762 58.4877 96.5612 57.8873C96.2547 57.3028 96.0892 56.7289 96.0648 56.1657C96.0457 55.5996 96.1619 55.0913 96.4134 54.6407C96.6701 54.1874 97.0429 53.8323 97.5316 53.5757ZM97.575 53.7359C97.235 53.9144 96.9976 54.1916 96.8627 54.5674C96.7304 54.9351 96.7039 55.3692 96.7835 55.8696C96.8683 56.3672 97.0543 56.8896 97.3413 57.4369C97.6312 57.9895 97.9632 58.4352 98.3374 58.7741C98.7169 59.1102 99.0994 59.3227 99.4848 59.4117C99.8703 59.5007 100.228 59.4587 100.557 59.2857C100.897 59.1072 101.133 58.8341 101.265 58.4664C101.4 58.0906 101.425 57.6539 101.341 57.1562C101.261 56.6558 101.078 56.132 100.791 55.5847C100.501 55.0321 100.166 54.5878 99.7866 54.2517C99.4124 53.9128 99.0326 53.6989 98.6471 53.6099C98.2617 53.5209 97.9043 53.5629 97.575 53.7359Z" fill="#FFFAFC"/>
<path d="M110.563 48.0579C110.675 48.4711 110.791 48.8377 110.912 49.1575C111.019 49.438 111.114 49.6648 111.199 49.838L111.006 49.9114C110.797 49.4964 110.62 49.1979 110.474 49.0159C110.326 48.8282 110.149 48.7186 109.945 48.6871C109.738 48.65 109.461 48.6974 109.113 48.8294L108.659 49.0019L110.474 53.7905C110.563 54.0261 110.65 54.1887 110.736 54.2783C110.821 54.3679 110.927 54.411 111.054 54.4077C111.181 54.4044 111.373 54.3604 111.63 54.2759L111.694 54.4442C111.396 54.538 110.98 54.6861 110.447 54.8883C109.886 55.1012 109.474 55.2672 109.211 55.3862L109.148 55.2179C109.396 55.1109 109.568 55.0164 109.666 54.9346C109.763 54.8527 109.814 54.75 109.818 54.6263C109.823 54.5027 109.781 54.3231 109.691 54.0874L107.876 49.2988L107.422 49.4713C107.074 49.6033 106.835 49.7517 106.705 49.9165C106.573 50.0758 106.514 50.2748 106.527 50.5135C106.539 50.7467 106.604 51.0877 106.723 51.5368L106.529 51.6102C106.478 51.4243 106.399 51.1911 106.293 50.9106C106.172 50.5908 106.016 50.2391 105.826 49.8557C106.298 49.6958 107.092 49.4041 108.208 48.9804C109.319 48.5589 110.104 48.2514 110.563 48.0579Z" fill="#FFFAFC"/>
<path d="M120.638 44.9885C121.192 44.852 121.706 44.858 122.181 45.0065C122.663 45.1536 123.076 45.438 123.42 45.8597C123.77 46.2741 124.025 46.8105 124.188 47.4688C124.345 48.1096 124.366 48.7071 124.249 49.2612C124.138 49.8139 123.904 50.2796 123.546 50.6583C123.194 51.0355 122.75 51.2903 122.214 51.4225C121.66 51.5589 121.143 51.5537 120.662 51.4066C120.187 51.2581 119.774 50.9766 119.425 50.5622C119.08 50.1405 118.827 49.6005 118.665 48.9422C118.507 48.3013 118.483 47.7046 118.594 47.1519C118.711 46.5978 118.946 46.1321 119.298 45.7549C119.655 45.3762 120.102 45.1207 120.638 44.9885ZM120.642 45.1545C120.269 45.2464 119.972 45.4587 119.752 45.7912C119.535 46.1165 119.406 46.5316 119.363 47.0365C119.326 47.5399 119.382 48.0917 119.53 48.6917C119.679 49.2976 119.895 49.8098 120.177 50.2284C120.465 50.6456 120.786 50.9435 121.139 51.1221C121.492 51.3008 121.849 51.3456 122.21 51.2565C122.583 51.1646 122.878 50.956 123.094 50.6306C123.315 50.2981 123.444 49.8801 123.48 49.3767C123.523 48.8718 123.47 48.3193 123.322 47.7193C123.173 47.1134 122.954 46.6019 122.666 46.1847C122.384 45.7661 122.066 45.4675 121.713 45.2888C121.36 45.1102 121.003 45.0654 120.642 45.1545Z" fill="#FFFAFC"/>
</svg>
